<?xml version="1.0" encoding="utf-8" standalone="no"?>
<!DOCTYPE svg PUBLIC "-//W3C//DTD SVG 1.1//EN"
  "http://www.w3.org/Graphics/SVG/1.1/DTD/svg11.dtd">
<svg xmlns:xlink="http://www.w3.org/1999/xlink" width="336.166518pt" height="172.003598pt" viewBox="0 0 336.166518 172.003598" xmlns="http://www.w3.org/2000/svg" version="1.1">
 <metadata>
  <rdf:RDF xmlns:dc="http://purl.org/dc/elements/1.1/" xmlns:cc="http://creativecommons.org/ns#" xmlns:rdf="http://www.w3.org/1999/02/22-rdf-syntax-ns#">
   <cc:Work>
    <dc:type rdf:resource="http://purl.org/dc/dcmitype/StillImage"/>
    <dc:date>2026-04-02T20:11:45.057249</dc:date>
    <dc:format>image/svg+xml</dc:format>
    <dc:creator>
     <cc:Agent>
      <dc:title>Matplotlib v3.10.8, https://matplotlib.org/</dc:title>
     </cc:Agent>
    </dc:creator>
   </cc:Work>
  </rdf:RDF>
 </metadata>
 <defs>
  <style type="text/css">*{stroke-linejoin: round; stroke-linecap: butt}</style>
 </defs>
 <g id="figure_1">
  <g id="patch_1">
   <path d="M 0 172.003598 
L 336.166518 172.003598 
L 336.166518 0 
L 0 0 
z
" style="fill: #ffffff"/>
  </g>
  <g id="axes_1">
   <g id="line2d_1">
    <path d="M 87.925722 44.2832 
L 324.331119 44.2832 
" clip-path="url(#pe0dda450ba)" style="fill: none; stroke: #000000; stroke-width: 2; stroke-linecap: square"/>
   </g>
   <g id="line2d_2">
    <path d="M 87.925722 90.637199 
L 324.331119 90.637199 
" clip-path="url(#pe0dda450ba)" style="fill: none; stroke: #000000; stroke-width: 2; stroke-linecap: square"/>
   </g>
   <g id="line2d_3">
    <path d="M 97.196522 141.626598 
L 101.831922 132.355798 
" clip-path="url(#pe0dda450ba)" style="fill: none; stroke: #778899; stroke-width: 1.5; stroke-linecap: square"/>
   </g>
   <g id="line2d_4">
    <path d="M 87.925722 135.484693 
L 324.331119 135.484693 
" clip-path="url(#pe0dda450ba)" style="fill: none; stroke: #778899; stroke-width: 2; stroke-linecap: square"/>
   </g>
   <g id="line2d_5">
    <path d="M 87.925722 138.497703 
L 324.331119 138.497703 
" clip-path="url(#pe0dda450ba)" style="fill: none; stroke: #778899; stroke-width: 2; stroke-linecap: square"/>
   </g>
   <g id="patch_2">
    <path d="M 245.99286 126.445663 
L 258.044899 126.445663 
L 252.01888 135.137038 
z
" clip-path="url(#pe0dda450ba)" style="fill: #778899"/>
   </g>
   <g id="patch_3">
    <path d="M 292.346859 126.445663 
L 304.398899 126.445663 
L 298.372879 135.137038 
z
" clip-path="url(#pe0dda450ba)" style="fill: #778899"/>
   </g>
   <g id="patch_4">
    <path d="M 83.290322 21.1062 
L -1075.559663 21.1062 
L -1075.559663 206.522197 
L 83.290322 206.522197 
z
" clip-path="url(#pe0dda450ba)" style="fill: #ffffff; stroke: #ffffff; stroke-width: 1.5; stroke-linejoin: miter"/>
   </g>
   <g id="line2d_6">
    <path d="M 159.310881 90.637199 
L 159.310881 44.2832 
" clip-path="url(#pe0dda450ba)" style="fill: none; stroke: #002d9c; stroke-width: 2; stroke-linecap: square"/>
   </g>
   <g id="line2d_7">
    <path d="M 253.525384 44.2832 
L 253.525384 126.445663 
" clip-path="url(#pe0dda450ba)" style="fill: none; stroke: #778899; stroke-width: 2; stroke-linecap: square"/>
   </g>
   <g id="line2d_8">
    <path d="M 250.512375 44.2832 
L 250.512375 126.445663 
" clip-path="url(#pe0dda450ba)" style="fill: none; stroke: #778899; stroke-width: 2; stroke-linecap: square"/>
   </g>
   <g id="line2d_9">
    <path d="M 299.879384 90.637199 
L 299.879384 126.445663 
" clip-path="url(#pe0dda450ba)" style="fill: none; stroke: #778899; stroke-width: 2; stroke-linecap: square"/>
   </g>
   <g id="line2d_10">
    <path d="M 296.866374 90.637199 
L 296.866374 126.445663 
" clip-path="url(#pe0dda450ba)" style="fill: none; stroke: #778899; stroke-width: 2; stroke-linecap: square"/>
   </g>
   <g id="patch_5">
    <path d="M 196.62585 67.460199 
L 214.70391 67.460199 
L 214.70391 21.1062 
L 196.62585 21.1062 
z
" clip-path="url(#pe0dda450ba)" style="fill: #a8a8a8; opacity: 0.6"/>
   </g>
   <g id="patch_6">
    <path d="M 196.62585 113.814199 
L 214.70391 113.814199 
L 214.70391 67.460199 
L 196.62585 67.460199 
z
" clip-path="url(#pe0dda450ba)" style="fill: #a8a8a8; opacity: 0.6"/>
   </g>
   <g id="patch_7">
    <path d="M 97.891832 59.348249 
L 128.021931 59.348249 
L 128.021931 29.21815 
L 97.891832 29.21815 
z
" clip-path="url(#pe0dda450ba)" style="fill: #fa4d56; stroke: #fa4d56; stroke-width: 1.5; stroke-linejoin: miter"/>
   </g>
   <g id="patch_8">
    <path d="M 159.310881 48.802714 
C 160.50947 48.802714 161.65913 48.32651 162.50666 47.478979 
C 163.354191 46.631448 163.830396 45.481789 163.830396 44.2832 
C 163.830396 43.08461 163.354191 41.934951 162.50666 41.08742 
C 161.65913 40.239889 160.50947 39.763685 159.310881 39.763685 
C 158.112291 39.763685 156.962632 40.239889 156.115101 41.08742 
C 155.26757 41.934951 154.791366 43.08461 154.791366 44.2832 
C 154.791366 45.481789 155.26757 46.631448 156.115101 47.478979 
C 156.962632 48.32651 158.112291 48.802714 159.310881 48.802714 
z
" clip-path="url(#pe0dda450ba)" style="fill: #002d9c; stroke: #002d9c; stroke-width: 1.5; stroke-linejoin: miter"/>
   </g>
   <g id="patch_9">
    <path d="M 159.310881 101.182734 
C 162.107589 101.182734 164.790128 100.07159 166.7677 98.094018 
C 168.745272 96.116447 169.856416 93.433907 169.856416 90.637199 
C 169.856416 87.84049 168.745272 85.157951 166.7677 83.18038 
C 164.790128 81.202808 162.107589 80.091664 159.310881 80.091664 
C 156.514172 80.091664 153.831633 81.202808 151.854062 83.18038 
C 149.87649 85.157951 148.765346 87.84049 148.765346 90.637199 
C 148.765346 93.433907 149.87649 96.116447 151.854062 98.094018 
C 153.831633 100.07159 156.514172 101.182734 159.310881 101.182734 
z
" clip-path="url(#pe0dda450ba)" style="fill: #002d9c; stroke: #002d9c; stroke-width: 2; stroke-linejoin: miter"/>
   </g>
   <g id="patch_10">
    <path d="M 236.95383 59.348249 
L 267.083929 59.348249 
L 267.083929 29.21815 
L 236.95383 29.21815 
z
" clip-path="url(#pe0dda450ba)" style="fill: #a8a8a8; stroke: #a8a8a8; stroke-width: 1.5; stroke-linejoin: miter"/>
   </g>
   <g id="patch_11">
    <path d="M 262.564414 48.802714 
C 262.564414 46.006937 261.452612 43.322808 259.475699 41.345895 
C 257.498786 39.368982 254.814657 38.25718 252.01888 38.25718 
C 249.223102 38.25718 246.538973 39.368982 244.56206 41.345895 
C 242.585147 43.322808 241.473345 46.006937 241.473345 48.802714 
" clip-path="url(#pe0dda450ba)" style="fill: none; stroke: #000000; stroke-width: 2; stroke-linejoin: miter"/>
   </g>
   <g id="line2d_11">
    <path d="M 252.01888 48.802714 
L 262.564414 38.25718 
" clip-path="url(#pe0dda450ba)" style="fill: none; stroke: #000000; stroke-width: 2; stroke-linecap: square"/>
   </g>
   <g id="patch_12">
    <path d="M 283.307829 105.702249 
L 313.437929 105.702249 
L 313.437929 75.572149 
L 283.307829 75.572149 
z
" clip-path="url(#pe0dda450ba)" style="fill: #a8a8a8; stroke: #a8a8a8; stroke-width: 1.5; stroke-linejoin: miter"/>
   </g>
   <g id="patch_13">
    <path d="M 308.918414 95.156714 
C 308.918414 92.360937 307.806611 89.676808 305.829698 87.699895 
C 303.852785 85.722982 301.168656 84.611179 298.372879 84.611179 
C 295.577102 84.611179 292.892973 85.722982 290.91606 87.699895 
C 288.939147 89.676808 287.827344 92.360937 287.827344 95.156714 
" clip-path="url(#pe0dda450ba)" style="fill: none; stroke: #000000; stroke-width: 2; stroke-linejoin: miter"/>
   </g>
   <g id="line2d_12">
    <path d="M 298.372879 95.156714 
L 308.918414 84.611179 
" clip-path="url(#pe0dda450ba)" style="fill: none; stroke: #000000; stroke-width: 2; stroke-linecap: square"/>
   </g>
   <g id="line2d_13">
    <path d="M 159.310881 96.663219 
L 159.310881 84.611179 
" clip-path="url(#pe0dda450ba)" style="fill: none; stroke: #ffffff; stroke-width: 2; stroke-linecap: square"/>
   </g>
   <g id="line2d_14">
    <path d="M 153.284861 90.637199 
L 165.336901 90.637199 
" clip-path="url(#pe0dda450ba)" style="fill: none; stroke: #ffffff; stroke-width: 2; stroke-linecap: square"/>
   </g>
   <g id="text_1">
    <g clip-path="url(#pe0dda450ba)">
     <!-- ${q}_{0}$ -->
     <g transform="translate(60.617422 48.734176) scale(0.1625 -0.1625)">
      <defs>
       <path id="DejaVuSans-Oblique-71" d="M 2669 525 
Q 2438 222 2123 65 
Q 1809 -91 1428 -91 
Q 897 -91 595 267 
Q 294 625 294 1253 
Q 294 1759 480 2231 
Q 666 2703 1013 3078 
Q 1238 3322 1530 3453 
Q 1822 3584 2144 3584 
Q 2531 3584 2781 3431 
Q 3031 3278 3144 2969 
L 3244 3494 
L 3822 3494 
L 2888 -1319 
L 2309 -1319 
L 2669 525 
z
M 891 1338 
Q 891 875 1084 633 
Q 1278 391 1644 391 
Q 2188 391 2572 911 
Q 2956 1431 2956 2175 
Q 2956 2625 2757 2864 
Q 2559 3103 2188 3103 
Q 1916 3103 1684 2976 
Q 1453 2850 1281 2606 
Q 1100 2350 995 2006 
Q 891 1663 891 1338 
z
" transform="scale(0.015625)"/>
       <path id="DejaVuSans-30" d="M 2034 4250 
Q 1547 4250 1301 3770 
Q 1056 3291 1056 2328 
Q 1056 1369 1301 889 
Q 1547 409 2034 409 
Q 2525 409 2770 889 
Q 3016 1369 3016 2328 
Q 3016 3291 2770 3770 
Q 2525 4250 2034 4250 
z
M 2034 4750 
Q 2819 4750 3233 4129 
Q 3647 3509 3647 2328 
Q 3647 1150 3233 529 
Q 2819 -91 2034 -91 
Q 1250 -91 836 529 
Q 422 1150 422 2328 
Q 422 3509 836 4129 
Q 1250 4750 2034 4750 
z
" transform="scale(0.015625)"/>
      </defs>
      <use xlink:href="#DejaVuSans-Oblique-71"/>
      <use xlink:href="#DejaVuSans-30" transform="translate(63.476562 -16.40625) scale(0.7)"/>
     </g>
    </g>
   </g>
   <g id="text_2">
    <g clip-path="url(#pe0dda450ba)">
     <!-- ${q}_{1}$ -->
     <g transform="translate(60.617422 95.088175) scale(0.1625 -0.1625)">
      <defs>
       <path id="DejaVuSans-31" d="M 794 531 
L 1825 531 
L 1825 4091 
L 703 3866 
L 703 4441 
L 1819 4666 
L 2450 4666 
L 2450 531 
L 3481 531 
L 3481 0 
L 794 0 
L 794 531 
z
" transform="scale(0.015625)"/>
      </defs>
      <use xlink:href="#DejaVuSans-Oblique-71"/>
      <use xlink:href="#DejaVuSans-31" transform="translate(63.476562 -16.40625) scale(0.7)"/>
     </g>
    </g>
   </g>
   <g id="text_3">
    <g clip-path="url(#pe0dda450ba)">
     <!-- 2 -->
     <g transform="translate(92.561122 130.192923) scale(0.104 -0.104)">
      <defs>
       <path id="DejaVuSans-32" d="M 1228 531 
L 3431 531 
L 3431 0 
L 469 0 
L 469 531 
Q 828 903 1448 1529 
Q 2069 2156 2228 2338 
Q 2531 2678 2651 2914 
Q 2772 3150 2772 3378 
Q 2772 3750 2511 3984 
Q 2250 4219 1831 4219 
Q 1534 4219 1204 4116 
Q 875 4013 500 3803 
L 500 4441 
Q 881 4594 1212 4672 
Q 1544 4750 1819 4750 
Q 2544 4750 2975 4387 
Q 3406 4025 3406 3419 
Q 3406 3131 3298 2873 
Q 3191 2616 2906 2266 
Q 2828 2175 2409 1742 
Q 1991 1309 1228 531 
z
" transform="scale(0.015625)"/>
      </defs>
      <use xlink:href="#DejaVuSans-32"/>
     </g>
    </g>
   </g>
   <g id="text_4">
    <g clip-path="url(#pe0dda450ba)">
     <!-- meas -->
     <g transform="translate(34.404141 141.475183) scale(0.1625 -0.1625)">
      <defs>
       <path id="DejaVuSans-6d" d="M 3328 2828 
Q 3544 3216 3844 3400 
Q 4144 3584 4550 3584 
Q 5097 3584 5394 3201 
Q 5691 2819 5691 2113 
L 5691 0 
L 5113 0 
L 5113 2094 
Q 5113 2597 4934 2840 
Q 4756 3084 4391 3084 
Q 3944 3084 3684 2787 
Q 3425 2491 3425 1978 
L 3425 0 
L 2847 0 
L 2847 2094 
Q 2847 2600 2669 2842 
Q 2491 3084 2119 3084 
Q 1678 3084 1418 2786 
Q 1159 2488 1159 1978 
L 1159 0 
L 581 0 
L 581 3500 
L 1159 3500 
L 1159 2956 
Q 1356 3278 1631 3431 
Q 1906 3584 2284 3584 
Q 2666 3584 2933 3390 
Q 3200 3197 3328 2828 
z
" transform="scale(0.015625)"/>
       <path id="DejaVuSans-65" d="M 3597 1894 
L 3597 1613 
L 953 1613 
Q 991 1019 1311 708 
Q 1631 397 2203 397 
Q 2534 397 2845 478 
Q 3156 559 3463 722 
L 3463 178 
Q 3153 47 2828 -22 
Q 2503 -91 2169 -91 
Q 1331 -91 842 396 
Q 353 884 353 1716 
Q 353 2575 817 3079 
Q 1281 3584 2069 3584 
Q 2775 3584 3186 3129 
Q 3597 2675 3597 1894 
z
M 3022 2063 
Q 3016 2534 2758 2815 
Q 2500 3097 2075 3097 
Q 1594 3097 1305 2825 
Q 1016 2553 972 2059 
L 3022 2063 
z
" transform="scale(0.015625)"/>
       <path id="DejaVuSans-61" d="M 2194 1759 
Q 1497 1759 1228 1600 
Q 959 1441 959 1056 
Q 959 750 1161 570 
Q 1363 391 1709 391 
Q 2188 391 2477 730 
Q 2766 1069 2766 1631 
L 2766 1759 
L 2194 1759 
z
M 3341 1997 
L 3341 0 
L 2766 0 
L 2766 531 
Q 2569 213 2275 61 
Q 1981 -91 1556 -91 
Q 1019 -91 701 211 
Q 384 513 384 1019 
Q 384 1609 779 1909 
Q 1175 2209 1959 2209 
L 2766 2209 
L 2766 2266 
Q 2766 2663 2505 2880 
Q 2244 3097 1772 3097 
Q 1472 3097 1187 3025 
Q 903 2953 641 2809 
L 641 3341 
Q 956 3463 1253 3523 
Q 1550 3584 1831 3584 
Q 2591 3584 2966 3190 
Q 3341 2797 3341 1997 
z
" transform="scale(0.015625)"/>
       <path id="DejaVuSans-73" d="M 2834 3397 
L 2834 2853 
Q 2591 2978 2328 3040 
Q 2066 3103 1784 3103 
Q 1356 3103 1142 2972 
Q 928 2841 928 2578 
Q 928 2378 1081 2264 
Q 1234 2150 1697 2047 
L 1894 2003 
Q 2506 1872 2764 1633 
Q 3022 1394 3022 966 
Q 3022 478 2636 193 
Q 2250 -91 1575 -91 
Q 1294 -91 989 -36 
Q 684 19 347 128 
L 347 722 
Q 666 556 975 473 
Q 1284 391 1588 391 
Q 1994 391 2212 530 
Q 2431 669 2431 922 
Q 2431 1156 2273 1281 
Q 2116 1406 1581 1522 
L 1381 1569 
Q 847 1681 609 1914 
Q 372 2147 372 2553 
Q 372 3047 722 3315 
Q 1072 3584 1716 3584 
Q 2034 3584 2315 3537 
Q 2597 3491 2834 3397 
z
" transform="scale(0.015625)"/>
      </defs>
      <use xlink:href="#DejaVuSans-6d"/>
      <use xlink:href="#DejaVuSans-65" transform="translate(97.412109 0)"/>
      <use xlink:href="#DejaVuSans-61" transform="translate(158.935547 0)"/>
      <use xlink:href="#DejaVuSans-73" transform="translate(220.214844 0)"/>
     </g>
    </g>
   </g>
   <g id="text_5">
    <g clip-path="url(#pe0dda450ba)">
     <!-- H -->
     <g transform="translate(108.068678 47.870387) scale(0.13 -0.13)">
      <defs>
       <path id="DejaVuSans-48" d="M 628 4666 
L 1259 4666 
L 1259 2753 
L 3553 2753 
L 3553 4666 
L 4184 4666 
L 4184 0 
L 3553 0 
L 3553 2222 
L 1259 2222 
L 1259 0 
L 628 0 
L 628 4666 
z
" transform="scale(0.015625)"/>
      </defs>
      <use xlink:href="#DejaVuSans-48"/>
     </g>
    </g>
   </g>
   <g id="line2d_15">
    <path d="M 205.66488 21.1062 
L 205.66488 67.460199 
" clip-path="url(#pe0dda450ba)" style="fill: none; stroke-dasharray: 3.7,1.6; stroke-dashoffset: 0; stroke: #000000"/>
   </g>
   <g id="line2d_16">
    <path d="M 205.66488 67.460199 
L 205.66488 113.814199 
" clip-path="url(#pe0dda450ba)" style="fill: none; stroke-dasharray: 3.7,1.6; stroke-dashoffset: 0; stroke: #000000"/>
   </g>
   <g id="text_6">
    <g clip-path="url(#pe0dda450ba)">
     <!-- 0 -->
     <g transform="translate(263.607379 130.192923) scale(0.104 -0.104)">
      <use xlink:href="#DejaVuSans-30"/>
     </g>
    </g>
   </g>
   <g id="text_7">
    <g clip-path="url(#pe0dda450ba)">
     <!-- 1 -->
     <g transform="translate(309.961379 130.192923) scale(0.104 -0.104)">
      <use xlink:href="#DejaVuSans-31"/>
     </g>
    </g>
   </g>
  </g>
 </g>
 <defs>
  <clipPath id="pe0dda450ba">
   <rect x="7.2" y="7.2" width="321.766518" height="157.603598"/>
  </clipPath>
 </defs>
</svg>
