<?xml version="1.0" encoding="utf-8" standalone="no"?>
<!DOCTYPE svg PUBLIC "-//W3C//DTD SVG 1.1//EN"
  "http://www.w3.org/Graphics/SVG/1.1/DTD/svg11.dtd">
<svg xmlns:xlink="http://www.w3.org/1999/xlink" width="720pt" height="504pt" viewBox="0 0 720 504" xmlns="http://www.w3.org/2000/svg" version="1.1">
 <metadata>
  <rdf:RDF xmlns:dc="http://purl.org/dc/elements/1.1/" xmlns:cc="http://creativecommons.org/ns#" xmlns:rdf="http://www.w3.org/1999/02/22-rdf-syntax-ns#">
   <cc:Work>
    <dc:type rdf:resource="http://purl.org/dc/dcmitype/StillImage"/>
    <dc:date>2026-04-07T12:14:54.489638</dc:date>
    <dc:format>image/svg+xml</dc:format>
    <dc:creator>
     <cc:Agent>
      <dc:title>Matplotlib v3.10.8, https://matplotlib.org/</dc:title>
     </cc:Agent>
    </dc:creator>
   </cc:Work>
  </rdf:RDF>
 </metadata>
 <defs>
  <style type="text/css">*{stroke-linejoin: round; stroke-linecap: butt}</style>
 </defs>
 <g id="figure_1">
  <g id="patch_1">
   <path d="M 0 504 
L 720 504 
L 720 0 
L 0 0 
z
" style="fill: #ffffff"/>
  </g>
  <g id="axes_1">
   <g id="patch_2">
    <path d="M 90 448.56 
L 648 448.56 
L 648 60.48 
L 90 60.48 
z
" style="fill: #ffffff"/>
   </g>
   <g id="matplotlib.axis_1">
    <g id="xtick_1">
     <g id="line2d_1">
      <defs>
       <path id="mcf0c112e7e" d="M 0 0 
L 0 3.5 
" style="stroke: #000000; stroke-width: 0.8"/>
      </defs>
      <g>
       <use xlink:href="#mcf0c112e7e" x="115.363636" y="448.56" style="stroke: #000000; stroke-width: 0.8"/>
      </g>
     </g>
     <g id="text_1">
      <!-- 1.0 -->
      <g transform="translate(107.412074 463.158437) scale(0.1 -0.1)">
       <defs>
        <path id="DejaVuSans-31" d="M 794 531 
L 1825 531 
L 1825 4091 
L 703 3866 
L 703 4441 
L 1819 4666 
L 2450 4666 
L 2450 531 
L 3481 531 
L 3481 0 
L 794 0 
L 794 531 
z
" transform="scale(0.015625)"/>
        <path id="DejaVuSans-2e" d="M 684 794 
L 1344 794 
L 1344 0 
L 684 0 
L 684 794 
z
" transform="scale(0.015625)"/>
        <path id="DejaVuSans-30" d="M 2034 4250 
Q 1547 4250 1301 3770 
Q 1056 3291 1056 2328 
Q 1056 1369 1301 889 
Q 1547 409 2034 409 
Q 2525 409 2770 889 
Q 3016 1369 3016 2328 
Q 3016 3291 2770 3770 
Q 2525 4250 2034 4250 
z
M 2034 4750 
Q 2819 4750 3233 4129 
Q 3647 3509 3647 2328 
Q 3647 1150 3233 529 
Q 2819 -91 2034 -91 
Q 1250 -91 836 529 
Q 422 1150 422 2328 
Q 422 3509 836 4129 
Q 1250 4750 2034 4750 
z
" transform="scale(0.015625)"/>
       </defs>
       <use xlink:href="#DejaVuSans-31"/>
       <use xlink:href="#DejaVuSans-2e" transform="translate(63.623047 0)"/>
       <use xlink:href="#DejaVuSans-30" transform="translate(95.410156 0)"/>
      </g>
     </g>
    </g>
    <g id="xtick_2">
     <g id="line2d_2">
      <g>
       <use xlink:href="#mcf0c112e7e" x="178.772727" y="448.56" style="stroke: #000000; stroke-width: 0.8"/>
      </g>
     </g>
     <g id="text_2">
      <!-- 1.5 -->
      <g transform="translate(170.821165 463.158437) scale(0.1 -0.1)">
       <defs>
        <path id="DejaVuSans-35" d="M 691 4666 
L 3169 4666 
L 3169 4134 
L 1269 4134 
L 1269 2991 
Q 1406 3038 1543 3061 
Q 1681 3084 1819 3084 
Q 2600 3084 3056 2656 
Q 3513 2228 3513 1497 
Q 3513 744 3044 326 
Q 2575 -91 1722 -91 
Q 1428 -91 1123 -41 
Q 819 9 494 109 
L 494 744 
Q 775 591 1075 516 
Q 1375 441 1709 441 
Q 2250 441 2565 725 
Q 2881 1009 2881 1497 
Q 2881 1984 2565 2268 
Q 2250 2553 1709 2553 
Q 1456 2553 1204 2497 
Q 953 2441 691 2322 
L 691 4666 
z
" transform="scale(0.015625)"/>
       </defs>
       <use xlink:href="#DejaVuSans-31"/>
       <use xlink:href="#DejaVuSans-2e" transform="translate(63.623047 0)"/>
       <use xlink:href="#DejaVuSans-35" transform="translate(95.410156 0)"/>
      </g>
     </g>
    </g>
    <g id="xtick_3">
     <g id="line2d_3">
      <g>
       <use xlink:href="#mcf0c112e7e" x="242.181818" y="448.56" style="stroke: #000000; stroke-width: 0.8"/>
      </g>
     </g>
     <g id="text_3">
      <!-- 2.0 -->
      <g transform="translate(234.230256 463.158437) scale(0.1 -0.1)">
       <defs>
        <path id="DejaVuSans-32" d="M 1228 531 
L 3431 531 
L 3431 0 
L 469 0 
L 469 531 
Q 828 903 1448 1529 
Q 2069 2156 2228 2338 
Q 2531 2678 2651 2914 
Q 2772 3150 2772 3378 
Q 2772 3750 2511 3984 
Q 2250 4219 1831 4219 
Q 1534 4219 1204 4116 
Q 875 4013 500 3803 
L 500 4441 
Q 881 4594 1212 4672 
Q 1544 4750 1819 4750 
Q 2544 4750 2975 4387 
Q 3406 4025 3406 3419 
Q 3406 3131 3298 2873 
Q 3191 2616 2906 2266 
Q 2828 2175 2409 1742 
Q 1991 1309 1228 531 
z
" transform="scale(0.015625)"/>
       </defs>
       <use xlink:href="#DejaVuSans-32"/>
       <use xlink:href="#DejaVuSans-2e" transform="translate(63.623047 0)"/>
       <use xlink:href="#DejaVuSans-30" transform="translate(95.410156 0)"/>
      </g>
     </g>
    </g>
    <g id="xtick_4">
     <g id="line2d_4">
      <g>
       <use xlink:href="#mcf0c112e7e" x="305.590909" y="448.56" style="stroke: #000000; stroke-width: 0.8"/>
      </g>
     </g>
     <g id="text_4">
      <!-- 2.5 -->
      <g transform="translate(297.639347 463.158437) scale(0.1 -0.1)">
       <use xlink:href="#DejaVuSans-32"/>
       <use xlink:href="#DejaVuSans-2e" transform="translate(63.623047 0)"/>
       <use xlink:href="#DejaVuSans-35" transform="translate(95.410156 0)"/>
      </g>
     </g>
    </g>
    <g id="xtick_5">
     <g id="line2d_5">
      <g>
       <use xlink:href="#mcf0c112e7e" x="369" y="448.56" style="stroke: #000000; stroke-width: 0.8"/>
      </g>
     </g>
     <g id="text_5">
      <!-- 3.0 -->
      <g transform="translate(361.048437 463.158437) scale(0.1 -0.1)">
       <defs>
        <path id="DejaVuSans-33" d="M 2597 2516 
Q 3050 2419 3304 2112 
Q 3559 1806 3559 1356 
Q 3559 666 3084 287 
Q 2609 -91 1734 -91 
Q 1441 -91 1130 -33 
Q 819 25 488 141 
L 488 750 
Q 750 597 1062 519 
Q 1375 441 1716 441 
Q 2309 441 2620 675 
Q 2931 909 2931 1356 
Q 2931 1769 2642 2001 
Q 2353 2234 1838 2234 
L 1294 2234 
L 1294 2753 
L 1863 2753 
Q 2328 2753 2575 2939 
Q 2822 3125 2822 3475 
Q 2822 3834 2567 4026 
Q 2313 4219 1838 4219 
Q 1578 4219 1281 4162 
Q 984 4106 628 3988 
L 628 4550 
Q 988 4650 1302 4700 
Q 1616 4750 1894 4750 
Q 2613 4750 3031 4423 
Q 3450 4097 3450 3541 
Q 3450 3153 3228 2886 
Q 3006 2619 2597 2516 
z
" transform="scale(0.015625)"/>
       </defs>
       <use xlink:href="#DejaVuSans-33"/>
       <use xlink:href="#DejaVuSans-2e" transform="translate(63.623047 0)"/>
       <use xlink:href="#DejaVuSans-30" transform="translate(95.410156 0)"/>
      </g>
     </g>
    </g>
    <g id="xtick_6">
     <g id="line2d_6">
      <g>
       <use xlink:href="#mcf0c112e7e" x="432.409091" y="448.56" style="stroke: #000000; stroke-width: 0.8"/>
      </g>
     </g>
     <g id="text_6">
      <!-- 3.5 -->
      <g transform="translate(424.457528 463.158437) scale(0.1 -0.1)">
       <use xlink:href="#DejaVuSans-33"/>
       <use xlink:href="#DejaVuSans-2e" transform="translate(63.623047 0)"/>
       <use xlink:href="#DejaVuSans-35" transform="translate(95.410156 0)"/>
      </g>
     </g>
    </g>
    <g id="xtick_7">
     <g id="line2d_7">
      <g>
       <use xlink:href="#mcf0c112e7e" x="495.818182" y="448.56" style="stroke: #000000; stroke-width: 0.8"/>
      </g>
     </g>
     <g id="text_7">
      <!-- 4.0 -->
      <g transform="translate(487.866619 463.158437) scale(0.1 -0.1)">
       <defs>
        <path id="DejaVuSans-34" d="M 2419 4116 
L 825 1625 
L 2419 1625 
L 2419 4116 
z
M 2253 4666 
L 3047 4666 
L 3047 1625 
L 3713 1625 
L 3713 1100 
L 3047 1100 
L 3047 0 
L 2419 0 
L 2419 1100 
L 313 1100 
L 313 1709 
L 2253 4666 
z
" transform="scale(0.015625)"/>
       </defs>
       <use xlink:href="#DejaVuSans-34"/>
       <use xlink:href="#DejaVuSans-2e" transform="translate(63.623047 0)"/>
       <use xlink:href="#DejaVuSans-30" transform="translate(95.410156 0)"/>
      </g>
     </g>
    </g>
    <g id="xtick_8">
     <g id="line2d_8">
      <g>
       <use xlink:href="#mcf0c112e7e" x="559.227273" y="448.56" style="stroke: #000000; stroke-width: 0.8"/>
      </g>
     </g>
     <g id="text_8">
      <!-- 4.5 -->
      <g transform="translate(551.27571 463.158437) scale(0.1 -0.1)">
       <use xlink:href="#DejaVuSans-34"/>
       <use xlink:href="#DejaVuSans-2e" transform="translate(63.623047 0)"/>
       <use xlink:href="#DejaVuSans-35" transform="translate(95.410156 0)"/>
      </g>
     </g>
    </g>
    <g id="xtick_9">
     <g id="line2d_9">
      <g>
       <use xlink:href="#mcf0c112e7e" x="622.636364" y="448.56" style="stroke: #000000; stroke-width: 0.8"/>
      </g>
     </g>
     <g id="text_9">
      <!-- 5.0 -->
      <g transform="translate(614.684801 463.158437) scale(0.1 -0.1)">
       <use xlink:href="#DejaVuSans-35"/>
       <use xlink:href="#DejaVuSans-2e" transform="translate(63.623047 0)"/>
       <use xlink:href="#DejaVuSans-30" transform="translate(95.410156 0)"/>
      </g>
     </g>
    </g>
    <g id="text_10">
     <!-- Momento angular J -->
     <g transform="translate(321.753906 476.836563) scale(0.1 -0.1)">
      <defs>
       <path id="DejaVuSans-4d" d="M 628 4666 
L 1569 4666 
L 2759 1491 
L 3956 4666 
L 4897 4666 
L 4897 0 
L 4281 0 
L 4281 4097 
L 3078 897 
L 2444 897 
L 1241 4097 
L 1241 0 
L 628 0 
L 628 4666 
z
" transform="scale(0.015625)"/>
       <path id="DejaVuSans-6f" d="M 1959 3097 
Q 1497 3097 1228 2736 
Q 959 2375 959 1747 
Q 959 1119 1226 758 
Q 1494 397 1959 397 
Q 2419 397 2687 759 
Q 2956 1122 2956 1747 
Q 2956 2369 2687 2733 
Q 2419 3097 1959 3097 
z
M 1959 3584 
Q 2709 3584 3137 3096 
Q 3566 2609 3566 1747 
Q 3566 888 3137 398 
Q 2709 -91 1959 -91 
Q 1206 -91 779 398 
Q 353 888 353 1747 
Q 353 2609 779 3096 
Q 1206 3584 1959 3584 
z
" transform="scale(0.015625)"/>
       <path id="DejaVuSans-6d" d="M 3328 2828 
Q 3544 3216 3844 3400 
Q 4144 3584 4550 3584 
Q 5097 3584 5394 3201 
Q 5691 2819 5691 2113 
L 5691 0 
L 5113 0 
L 5113 2094 
Q 5113 2597 4934 2840 
Q 4756 3084 4391 3084 
Q 3944 3084 3684 2787 
Q 3425 2491 3425 1978 
L 3425 0 
L 2847 0 
L 2847 2094 
Q 2847 2600 2669 2842 
Q 2491 3084 2119 3084 
Q 1678 3084 1418 2786 
Q 1159 2488 1159 1978 
L 1159 0 
L 581 0 
L 581 3500 
L 1159 3500 
L 1159 2956 
Q 1356 3278 1631 3431 
Q 1906 3584 2284 3584 
Q 2666 3584 2933 3390 
Q 3200 3197 3328 2828 
z
" transform="scale(0.015625)"/>
       <path id="DejaVuSans-65" d="M 3597 1894 
L 3597 1613 
L 953 1613 
Q 991 1019 1311 708 
Q 1631 397 2203 397 
Q 2534 397 2845 478 
Q 3156 559 3463 722 
L 3463 178 
Q 3153 47 2828 -22 
Q 2503 -91 2169 -91 
Q 1331 -91 842 396 
Q 353 884 353 1716 
Q 353 2575 817 3079 
Q 1281 3584 2069 3584 
Q 2775 3584 3186 3129 
Q 3597 2675 3597 1894 
z
M 3022 2063 
Q 3016 2534 2758 2815 
Q 2500 3097 2075 3097 
Q 1594 3097 1305 2825 
Q 1016 2553 972 2059 
L 3022 2063 
z
" transform="scale(0.015625)"/>
       <path id="DejaVuSans-6e" d="M 3513 2113 
L 3513 0 
L 2938 0 
L 2938 2094 
Q 2938 2591 2744 2837 
Q 2550 3084 2163 3084 
Q 1697 3084 1428 2787 
Q 1159 2491 1159 1978 
L 1159 0 
L 581 0 
L 581 3500 
L 1159 3500 
L 1159 2956 
Q 1366 3272 1645 3428 
Q 1925 3584 2291 3584 
Q 2894 3584 3203 3211 
Q 3513 2838 3513 2113 
z
" transform="scale(0.015625)"/>
       <path id="DejaVuSans-74" d="M 1172 4494 
L 1172 3500 
L 2356 3500 
L 2356 3053 
L 1172 3053 
L 1172 1153 
Q 1172 725 1289 603 
Q 1406 481 1766 481 
L 2356 481 
L 2356 0 
L 1766 0 
Q 1100 0 847 248 
Q 594 497 594 1153 
L 594 3053 
L 172 3053 
L 172 3500 
L 594 3500 
L 594 4494 
L 1172 4494 
z
" transform="scale(0.015625)"/>
       <path id="DejaVuSans-20" transform="scale(0.015625)"/>
       <path id="DejaVuSans-61" d="M 2194 1759 
Q 1497 1759 1228 1600 
Q 959 1441 959 1056 
Q 959 750 1161 570 
Q 1363 391 1709 391 
Q 2188 391 2477 730 
Q 2766 1069 2766 1631 
L 2766 1759 
L 2194 1759 
z
M 3341 1997 
L 3341 0 
L 2766 0 
L 2766 531 
Q 2569 213 2275 61 
Q 1981 -91 1556 -91 
Q 1019 -91 701 211 
Q 384 513 384 1019 
Q 384 1609 779 1909 
Q 1175 2209 1959 2209 
L 2766 2209 
L 2766 2266 
Q 2766 2663 2505 2880 
Q 2244 3097 1772 3097 
Q 1472 3097 1187 3025 
Q 903 2953 641 2809 
L 641 3341 
Q 956 3463 1253 3523 
Q 1550 3584 1831 3584 
Q 2591 3584 2966 3190 
Q 3341 2797 3341 1997 
z
" transform="scale(0.015625)"/>
       <path id="DejaVuSans-67" d="M 2906 1791 
Q 2906 2416 2648 2759 
Q 2391 3103 1925 3103 
Q 1463 3103 1205 2759 
Q 947 2416 947 1791 
Q 947 1169 1205 825 
Q 1463 481 1925 481 
Q 2391 481 2648 825 
Q 2906 1169 2906 1791 
z
M 3481 434 
Q 3481 -459 3084 -895 
Q 2688 -1331 1869 -1331 
Q 1566 -1331 1297 -1286 
Q 1028 -1241 775 -1147 
L 775 -588 
Q 1028 -725 1275 -790 
Q 1522 -856 1778 -856 
Q 2344 -856 2625 -561 
Q 2906 -266 2906 331 
L 2906 616 
Q 2728 306 2450 153 
Q 2172 0 1784 0 
Q 1141 0 747 490 
Q 353 981 353 1791 
Q 353 2603 747 3093 
Q 1141 3584 1784 3584 
Q 2172 3584 2450 3431 
Q 2728 3278 2906 2969 
L 2906 3500 
L 3481 3500 
L 3481 434 
z
" transform="scale(0.015625)"/>
       <path id="DejaVuSans-75" d="M 544 1381 
L 544 3500 
L 1119 3500 
L 1119 1403 
Q 1119 906 1312 657 
Q 1506 409 1894 409 
Q 2359 409 2629 706 
Q 2900 1003 2900 1516 
L 2900 3500 
L 3475 3500 
L 3475 0 
L 2900 0 
L 2900 538 
Q 2691 219 2414 64 
Q 2138 -91 1772 -91 
Q 1169 -91 856 284 
Q 544 659 544 1381 
z
M 1991 3584 
L 1991 3584 
z
" transform="scale(0.015625)"/>
       <path id="DejaVuSans-6c" d="M 603 4863 
L 1178 4863 
L 1178 0 
L 603 0 
L 603 4863 
z
" transform="scale(0.015625)"/>
       <path id="DejaVuSans-72" d="M 2631 2963 
Q 2534 3019 2420 3045 
Q 2306 3072 2169 3072 
Q 1681 3072 1420 2755 
Q 1159 2438 1159 1844 
L 1159 0 
L 581 0 
L 581 3500 
L 1159 3500 
L 1159 2956 
Q 1341 3275 1631 3429 
Q 1922 3584 2338 3584 
Q 2397 3584 2469 3576 
Q 2541 3569 2628 3553 
L 2631 2963 
z
" transform="scale(0.015625)"/>
       <path id="DejaVuSans-4a" d="M 628 4666 
L 1259 4666 
L 1259 325 
Q 1259 -519 939 -900 
Q 619 -1281 -91 -1281 
L -331 -1281 
L -331 -750 
L -134 -750 
Q 284 -750 456 -515 
Q 628 -281 628 325 
L 628 4666 
z
" transform="scale(0.015625)"/>
      </defs>
      <use xlink:href="#DejaVuSans-4d"/>
      <use xlink:href="#DejaVuSans-6f" transform="translate(86.279297 0)"/>
      <use xlink:href="#DejaVuSans-6d" transform="translate(147.460938 0)"/>
      <use xlink:href="#DejaVuSans-65" transform="translate(244.873047 0)"/>
      <use xlink:href="#DejaVuSans-6e" transform="translate(306.396484 0)"/>
      <use xlink:href="#DejaVuSans-74" transform="translate(369.775391 0)"/>
      <use xlink:href="#DejaVuSans-6f" transform="translate(408.984375 0)"/>
      <use xlink:href="#DejaVuSans-20" transform="translate(470.166016 0)"/>
      <use xlink:href="#DejaVuSans-61" transform="translate(501.953125 0)"/>
      <use xlink:href="#DejaVuSans-6e" transform="translate(563.232422 0)"/>
      <use xlink:href="#DejaVuSans-67" transform="translate(626.611328 0)"/>
      <use xlink:href="#DejaVuSans-75" transform="translate(690.087891 0)"/>
      <use xlink:href="#DejaVuSans-6c" transform="translate(753.466797 0)"/>
      <use xlink:href="#DejaVuSans-61" transform="translate(781.25 0)"/>
      <use xlink:href="#DejaVuSans-72" transform="translate(842.529297 0)"/>
      <use xlink:href="#DejaVuSans-20" transform="translate(883.642578 0)"/>
      <use xlink:href="#DejaVuSans-4a" transform="translate(915.429688 0)"/>
     </g>
    </g>
   </g>
   <g id="matplotlib.axis_2">
    <g id="text_11">
     <!-- Energía -&gt;&gt; -->
     <g transform="translate(83.920312 285.292656) rotate(-90) scale(0.1 -0.1)">
      <defs>
       <path id="DejaVuSans-45" d="M 628 4666 
L 3578 4666 
L 3578 4134 
L 1259 4134 
L 1259 2753 
L 3481 2753 
L 3481 2222 
L 1259 2222 
L 1259 531 
L 3634 531 
L 3634 0 
L 628 0 
L 628 4666 
z
" transform="scale(0.015625)"/>
       <path id="DejaVuSans-ed" d="M 1322 5119 
L 1944 5119 
L 926 3944 
L 447 3944 
L 1322 5119 
z
M 603 3500 
L 1178 3500 
L 1178 0 
L 603 0 
L 603 3500 
z
M 891 3584 
L 891 3584 
z
" transform="scale(0.015625)"/>
       <path id="DejaVuSans-2d" d="M 313 2009 
L 1997 2009 
L 1997 1497 
L 313 1497 
L 313 2009 
z
" transform="scale(0.015625)"/>
       <path id="DejaVuSans-3e" d="M 678 3150 
L 678 3719 
L 4684 2266 
L 4684 1747 
L 678 294 
L 678 863 
L 3897 2003 
L 678 3150 
z
" transform="scale(0.015625)"/>
      </defs>
      <use xlink:href="#DejaVuSans-45"/>
      <use xlink:href="#DejaVuSans-6e" transform="translate(63.183594 0)"/>
      <use xlink:href="#DejaVuSans-65" transform="translate(126.5625 0)"/>
      <use xlink:href="#DejaVuSans-72" transform="translate(188.085938 0)"/>
      <use xlink:href="#DejaVuSans-67" transform="translate(227.449219 0)"/>
      <use xlink:href="#DejaVuSans-ed" transform="translate(290.925781 0)"/>
      <use xlink:href="#DejaVuSans-61" transform="translate(318.708984 0)"/>
      <use xlink:href="#DejaVuSans-20" transform="translate(379.988281 0)"/>
      <use xlink:href="#DejaVuSans-2d" transform="translate(411.775391 0)"/>
      <use xlink:href="#DejaVuSans-3e" transform="translate(447.859375 0)"/>
      <use xlink:href="#DejaVuSans-3e" transform="translate(531.648438 0)"/>
     </g>
    </g>
   </g>
   <g id="patch_3">
    <path d="M 90 448.56 
L 90 60.48 
" style="fill: none; stroke: #000000; stroke-width: 0.8; stroke-linejoin: miter; stroke-linecap: square"/>
   </g>
   <g id="patch_4">
    <path d="M 648 448.56 
L 648 60.48 
" style="fill: none; stroke: #000000; stroke-width: 0.8; stroke-linejoin: miter; stroke-linecap: square"/>
   </g>
   <g id="patch_5">
    <path d="M 90 448.56 
L 648 448.56 
" style="fill: none; stroke: #000000; stroke-width: 0.8; stroke-linejoin: miter; stroke-linecap: square"/>
   </g>
   <g id="patch_6">
    <path d="M 90 60.48 
L 648 60.48 
" style="fill: none; stroke: #000000; stroke-width: 0.8; stroke-linejoin: miter; stroke-linecap: square"/>
   </g>
   <g id="PathCollection_1">
    <defs>
     <path id="mfa66b8c967" d="M 22.36068 0 
L -22.36068 -0 
" style="stroke: #1f77b4; stroke-width: 2"/>
    </defs>
    <g clip-path="url(#pb0c23e2184)">
     <use xlink:href="#mfa66b8c967" x="242.181818" y="430.92" style="fill: #1f77b4; stroke: #1f77b4; stroke-width: 2"/>
     <use xlink:href="#mfa66b8c967" x="115.363636" y="353.972883" style="fill: #1f77b4; stroke: #1f77b4; stroke-width: 2"/>
     <use xlink:href="#mfa66b8c967" x="369" y="321.239343" style="fill: #1f77b4; stroke: #1f77b4; stroke-width: 2"/>
     <use xlink:href="#mfa66b8c967" x="242.181818" y="321.23846" style="fill: #1f77b4; stroke: #1f77b4; stroke-width: 2"/>
     <use xlink:href="#mfa66b8c967" x="115.363636" y="321.227045" style="fill: #1f77b4; stroke: #1f77b4; stroke-width: 2"/>
     <use xlink:href="#mfa66b8c967" x="242.181818" y="297.716043" style="fill: #1f77b4; stroke: #1f77b4; stroke-width: 2"/>
     <use xlink:href="#mfa66b8c967" x="242.181818" y="164.222393" style="fill: #1f77b4; stroke: #1f77b4; stroke-width: 2"/>
     <use xlink:href="#mfa66b8c967" x="115.363636" y="146.940279" style="fill: #1f77b4; stroke: #1f77b4; stroke-width: 2"/>
     <use xlink:href="#mfa66b8c967" x="369" y="139.55912" style="fill: #1f77b4; stroke: #1f77b4; stroke-width: 2"/>
     <use xlink:href="#mfa66b8c967" x="242.181818" y="139.558889" style="fill: #1f77b4; stroke: #1f77b4; stroke-width: 2"/>
     <use xlink:href="#mfa66b8c967" x="115.363636" y="139.556038" style="fill: #1f77b4; stroke: #1f77b4; stroke-width: 2"/>
     <use xlink:href="#mfa66b8c967" x="495.818182" y="133.91357" style="fill: #1f77b4; stroke: #1f77b4; stroke-width: 2"/>
     <use xlink:href="#mfa66b8c967" x="369" y="133.913544" style="fill: #1f77b4; stroke: #1f77b4; stroke-width: 2"/>
     <use xlink:href="#mfa66b8c967" x="242.181818" y="133.91308" style="fill: #1f77b4; stroke: #1f77b4; stroke-width: 2"/>
     <use xlink:href="#mfa66b8c967" x="369" y="133.877661" style="fill: #1f77b4; stroke: #1f77b4; stroke-width: 2"/>
     <use xlink:href="#mfa66b8c967" x="242.181818" y="132.781989" style="fill: #1f77b4; stroke: #1f77b4; stroke-width: 2"/>
     <use xlink:href="#mfa66b8c967" x="242.181818" y="90.346307" style="fill: #1f77b4; stroke: #1f77b4; stroke-width: 2"/>
     <use xlink:href="#mfa66b8c967" x="115.363636" y="83.764991" style="fill: #1f77b4; stroke: #1f77b4; stroke-width: 2"/>
     <use xlink:href="#mfa66b8c967" x="369" y="80.934614" style="fill: #1f77b4; stroke: #1f77b4; stroke-width: 2"/>
     <use xlink:href="#mfa66b8c967" x="242.181818" y="80.934522" style="fill: #1f77b4; stroke: #1f77b4; stroke-width: 2"/>
     <use xlink:href="#mfa66b8c967" x="115.363636" y="80.933395" style="fill: #1f77b4; stroke: #1f77b4; stroke-width: 2"/>
     <use xlink:href="#mfa66b8c967" x="495.818182" y="78.612148" style="fill: #1f77b4; stroke: #1f77b4; stroke-width: 2"/>
     <use xlink:href="#mfa66b8c967" x="369" y="78.612136" style="fill: #1f77b4; stroke: #1f77b4; stroke-width: 2"/>
     <use xlink:href="#mfa66b8c967" x="242.181818" y="78.611947" style="fill: #1f77b4; stroke: #1f77b4; stroke-width: 2"/>
     <use xlink:href="#mfa66b8c967" x="369" y="78.591995" style="fill: #1f77b4; stroke: #1f77b4; stroke-width: 2"/>
     <use xlink:href="#mfa66b8c967" x="495.818182" y="78.536702" style="fill: #1f77b4; stroke: #1f77b4; stroke-width: 2"/>
     <use xlink:href="#mfa66b8c967" x="622.636364" y="78.536629" style="fill: #1f77b4; stroke: #1f77b4; stroke-width: 2"/>
     <use xlink:href="#mfa66b8c967" x="369" y="78.536541" style="fill: #1f77b4; stroke: #1f77b4; stroke-width: 2"/>
     <use xlink:href="#mfa66b8c967" x="495.818182" y="78.536462" style="fill: #1f77b4; stroke: #1f77b4; stroke-width: 2"/>
     <use xlink:href="#mfa66b8c967" x="242.181818" y="78.12" style="fill: #1f77b4; stroke: #1f77b4; stroke-width: 2"/>
    </g>
   </g>
   <g id="text_12">
    <g id="patch_7">
     <path d="M 116.156996 449.655 
L 161.370277 449.655 
Q 162.495277 449.655 162.495277 448.53 
L 162.495277 441.03 
Q 162.495277 439.905 161.370277 439.905 
L 116.156996 439.905 
Q 115.031996 439.905 115.031996 441.03 
L 115.031996 448.53 
Q 115.031996 449.655 116.156996 449.655 
z
" style="fill: #ffffff; opacity: 0.75"/>
    </g>
    <!-- 1s1s|1S|J=0 -->
    <g transform="translate(116.156996 446.761641) scale(0.075 -0.075)">
     <defs>
      <path id="DejaVuSans-73" d="M 2834 3397 
L 2834 2853 
Q 2591 2978 2328 3040 
Q 2066 3103 1784 3103 
Q 1356 3103 1142 2972 
Q 928 2841 928 2578 
Q 928 2378 1081 2264 
Q 1234 2150 1697 2047 
L 1894 2003 
Q 2506 1872 2764 1633 
Q 3022 1394 3022 966 
Q 3022 478 2636 193 
Q 2250 -91 1575 -91 
Q 1294 -91 989 -36 
Q 684 19 347 128 
L 347 722 
Q 666 556 975 473 
Q 1284 391 1588 391 
Q 1994 391 2212 530 
Q 2431 669 2431 922 
Q 2431 1156 2273 1281 
Q 2116 1406 1581 1522 
L 1381 1569 
Q 847 1681 609 1914 
Q 372 2147 372 2553 
Q 372 3047 722 3315 
Q 1072 3584 1716 3584 
Q 2034 3584 2315 3537 
Q 2597 3491 2834 3397 
z
" transform="scale(0.015625)"/>
      <path id="DejaVuSans-7c" d="M 1344 4891 
L 1344 -1509 
L 813 -1509 
L 813 4891 
L 1344 4891 
z
" transform="scale(0.015625)"/>
      <path id="DejaVuSans-53" d="M 3425 4513 
L 3425 3897 
Q 3066 4069 2747 4153 
Q 2428 4238 2131 4238 
Q 1616 4238 1336 4038 
Q 1056 3838 1056 3469 
Q 1056 3159 1242 3001 
Q 1428 2844 1947 2747 
L 2328 2669 
Q 3034 2534 3370 2195 
Q 3706 1856 3706 1288 
Q 3706 609 3251 259 
Q 2797 -91 1919 -91 
Q 1588 -91 1214 -16 
Q 841 59 441 206 
L 441 856 
Q 825 641 1194 531 
Q 1563 422 1919 422 
Q 2459 422 2753 634 
Q 3047 847 3047 1241 
Q 3047 1584 2836 1778 
Q 2625 1972 2144 2069 
L 1759 2144 
Q 1053 2284 737 2584 
Q 422 2884 422 3419 
Q 422 4038 858 4394 
Q 1294 4750 2059 4750 
Q 2388 4750 2728 4690 
Q 3069 4631 3425 4513 
z
" transform="scale(0.015625)"/>
      <path id="DejaVuSans-3d" d="M 678 2906 
L 4684 2906 
L 4684 2381 
L 678 2381 
L 678 2906 
z
M 678 1631 
L 4684 1631 
L 4684 1100 
L 678 1100 
L 678 1631 
z
" transform="scale(0.015625)"/>
     </defs>
     <use xlink:href="#DejaVuSans-31"/>
     <use xlink:href="#DejaVuSans-73" transform="translate(63.623047 0)"/>
     <use xlink:href="#DejaVuSans-31" transform="translate(115.722656 0)"/>
     <use xlink:href="#DejaVuSans-73" transform="translate(179.345703 0)"/>
     <use xlink:href="#DejaVuSans-7c" transform="translate(231.445312 0)"/>
     <use xlink:href="#DejaVuSans-31" transform="translate(265.136719 0)"/>
     <use xlink:href="#DejaVuSans-53" transform="translate(328.759766 0)"/>
     <use xlink:href="#DejaVuSans-7c" transform="translate(392.236328 0)"/>
     <use xlink:href="#DejaVuSans-4a" transform="translate(425.927734 0)"/>
     <use xlink:href="#DejaVuSans-3d" transform="translate(455.419922 0)"/>
     <use xlink:href="#DejaVuSans-30" transform="translate(539.208984 0)"/>
    </g>
   </g>
   <g id="text_13">
    <g id="patch_8">
     <path d="M 243.020178 430.125 
L 288.233459 430.125 
Q 289.358459 430.125 289.358459 429 
L 289.358459 421.5 
Q 289.358459 420.375 288.233459 420.375 
L 243.020178 420.375 
Q 241.895178 420.375 241.895178 421.5 
L 241.895178 429 
Q 241.895178 430.125 243.020178 430.125 
z
" style="fill: #ffffff; opacity: 0.75"/>
    </g>
    <!-- 1s2s|3S|J=1 -->
    <g transform="translate(243.020178 427.231641) scale(0.075 -0.075)">
     <use xlink:href="#DejaVuSans-31"/>
     <use xlink:href="#DejaVuSans-73" transform="translate(63.623047 0)"/>
     <use xlink:href="#DejaVuSans-32" transform="translate(115.722656 0)"/>
     <use xlink:href="#DejaVuSans-73" transform="translate(179.345703 0)"/>
     <use xlink:href="#DejaVuSans-7c" transform="translate(231.445312 0)"/>
     <use xlink:href="#DejaVuSans-33" transform="translate(265.136719 0)"/>
     <use xlink:href="#DejaVuSans-53" transform="translate(328.759766 0)"/>
     <use xlink:href="#DejaVuSans-7c" transform="translate(392.236328 0)"/>
     <use xlink:href="#DejaVuSans-4a" transform="translate(425.927734 0)"/>
     <use xlink:href="#DejaVuSans-3d" transform="translate(455.419922 0)"/>
     <use xlink:href="#DejaVuSans-31" transform="translate(539.208984 0)"/>
    </g>
   </g>
   <g id="text_14">
    <g id="patch_9">
     <path d="M 116.876996 357.227883 
L 162.090277 357.227883 
Q 163.215277 357.227883 163.215277 356.102883 
L 163.215277 348.602883 
Q 163.215277 347.477883 162.090277 347.477883 
L 116.876996 347.477883 
Q 115.751996 347.477883 115.751996 348.602883 
L 115.751996 356.102883 
Q 115.751996 357.227883 116.876996 357.227883 
z
" style="fill: #ffffff; opacity: 0.75"/>
    </g>
    <!-- 1s2s|1S|J=0 -->
    <g transform="translate(116.876996 354.334523) scale(0.075 -0.075)">
     <use xlink:href="#DejaVuSans-31"/>
     <use xlink:href="#DejaVuSans-73" transform="translate(63.623047 0)"/>
     <use xlink:href="#DejaVuSans-32" transform="translate(115.722656 0)"/>
     <use xlink:href="#DejaVuSans-73" transform="translate(179.345703 0)"/>
     <use xlink:href="#DejaVuSans-7c" transform="translate(231.445312 0)"/>
     <use xlink:href="#DejaVuSans-31" transform="translate(265.136719 0)"/>
     <use xlink:href="#DejaVuSans-53" transform="translate(328.759766 0)"/>
     <use xlink:href="#DejaVuSans-7c" transform="translate(392.236328 0)"/>
     <use xlink:href="#DejaVuSans-4a" transform="translate(425.927734 0)"/>
     <use xlink:href="#DejaVuSans-3d" transform="translate(455.419922 0)"/>
     <use xlink:href="#DejaVuSans-30" transform="translate(539.208984 0)"/>
    </g>
   </g>
   <g id="text_15">
    <g id="patch_10">
     <path d="M 369.800742 320.444343 
L 415.629258 320.444343 
Q 416.754258 320.444343 416.754258 319.319343 
L 416.754258 311.819343 
Q 416.754258 310.694343 415.629258 310.694343 
L 369.800742 310.694343 
Q 368.675742 310.694343 368.675742 311.819343 
L 368.675742 319.319343 
Q 368.675742 320.444343 369.800742 320.444343 
z
" style="fill: #ffffff; opacity: 0.75"/>
    </g>
    <!-- 1s2p|3P|J=2 -->
    <g transform="translate(369.800742 317.550984) scale(0.075 -0.075)">
     <defs>
      <path id="DejaVuSans-70" d="M 1159 525 
L 1159 -1331 
L 581 -1331 
L 581 3500 
L 1159 3500 
L 1159 2969 
Q 1341 3281 1617 3432 
Q 1894 3584 2278 3584 
Q 2916 3584 3314 3078 
Q 3713 2572 3713 1747 
Q 3713 922 3314 415 
Q 2916 -91 2278 -91 
Q 1894 -91 1617 61 
Q 1341 213 1159 525 
z
M 3116 1747 
Q 3116 2381 2855 2742 
Q 2594 3103 2138 3103 
Q 1681 3103 1420 2742 
Q 1159 2381 1159 1747 
Q 1159 1113 1420 752 
Q 1681 391 2138 391 
Q 2594 391 2855 752 
Q 3116 1113 3116 1747 
z
" transform="scale(0.015625)"/>
      <path id="DejaVuSans-50" d="M 1259 4147 
L 1259 2394 
L 2053 2394 
Q 2494 2394 2734 2622 
Q 2975 2850 2975 3272 
Q 2975 3691 2734 3919 
Q 2494 4147 2053 4147 
L 1259 4147 
z
M 628 4666 
L 2053 4666 
Q 2838 4666 3239 4311 
Q 3641 3956 3641 3272 
Q 3641 2581 3239 2228 
Q 2838 1875 2053 1875 
L 1259 1875 
L 1259 0 
L 628 0 
L 628 4666 
z
" transform="scale(0.015625)"/>
     </defs>
     <use xlink:href="#DejaVuSans-31"/>
     <use xlink:href="#DejaVuSans-73" transform="translate(63.623047 0)"/>
     <use xlink:href="#DejaVuSans-32" transform="translate(115.722656 0)"/>
     <use xlink:href="#DejaVuSans-70" transform="translate(179.345703 0)"/>
     <use xlink:href="#DejaVuSans-7c" transform="translate(242.822266 0)"/>
     <use xlink:href="#DejaVuSans-33" transform="translate(276.513672 0)"/>
     <use xlink:href="#DejaVuSans-50" transform="translate(340.136719 0)"/>
     <use xlink:href="#DejaVuSans-7c" transform="translate(400.439453 0)"/>
     <use xlink:href="#DejaVuSans-4a" transform="translate(434.130859 0)"/>
     <use xlink:href="#DejaVuSans-3d" transform="translate(463.623047 0)"/>
     <use xlink:href="#DejaVuSans-32" transform="translate(547.412109 0)"/>
    </g>
   </g>
   <g id="text_16">
    <g id="patch_11">
     <path d="M 243.70256 324.49346 
L 289.531076 324.49346 
Q 290.656076 324.49346 290.656076 323.36846 
L 290.656076 315.86846 
Q 290.656076 314.74346 289.531076 314.74346 
L 243.70256 314.74346 
Q 242.57756 314.74346 242.57756 315.86846 
L 242.57756 323.36846 
Q 242.57756 324.49346 243.70256 324.49346 
z
" style="fill: #ffffff; opacity: 0.75"/>
    </g>
    <!-- 1s2p|3P|J=1 -->
    <g transform="translate(243.70256 321.600101) scale(0.075 -0.075)">
     <use xlink:href="#DejaVuSans-31"/>
     <use xlink:href="#DejaVuSans-73" transform="translate(63.623047 0)"/>
     <use xlink:href="#DejaVuSans-32" transform="translate(115.722656 0)"/>
     <use xlink:href="#DejaVuSans-70" transform="translate(179.345703 0)"/>
     <use xlink:href="#DejaVuSans-7c" transform="translate(242.822266 0)"/>
     <use xlink:href="#DejaVuSans-33" transform="translate(276.513672 0)"/>
     <use xlink:href="#DejaVuSans-50" transform="translate(340.136719 0)"/>
     <use xlink:href="#DejaVuSans-7c" transform="translate(400.439453 0)"/>
     <use xlink:href="#DejaVuSans-4a" transform="translate(434.130859 0)"/>
     <use xlink:href="#DejaVuSans-3d" transform="translate(463.623047 0)"/>
     <use xlink:href="#DejaVuSans-31" transform="translate(547.412109 0)"/>
    </g>
   </g>
   <g id="text_17">
    <g id="patch_12">
     <path d="M 116.119379 318.722045 
L 161.947894 318.722045 
Q 163.072894 318.722045 163.072894 317.597045 
L 163.072894 310.097045 
Q 163.072894 308.972045 161.947894 308.972045 
L 116.119379 308.972045 
Q 114.994379 308.972045 114.994379 310.097045 
L 114.994379 317.597045 
Q 114.994379 318.722045 116.119379 318.722045 
z
" style="fill: #ffffff; opacity: 0.75"/>
    </g>
    <!-- 1s2p|3P|J=0 -->
    <g transform="translate(116.119379 315.828686) scale(0.075 -0.075)">
     <use xlink:href="#DejaVuSans-31"/>
     <use xlink:href="#DejaVuSans-73" transform="translate(63.623047 0)"/>
     <use xlink:href="#DejaVuSans-32" transform="translate(115.722656 0)"/>
     <use xlink:href="#DejaVuSans-70" transform="translate(179.345703 0)"/>
     <use xlink:href="#DejaVuSans-7c" transform="translate(242.822266 0)"/>
     <use xlink:href="#DejaVuSans-33" transform="translate(276.513672 0)"/>
     <use xlink:href="#DejaVuSans-50" transform="translate(340.136719 0)"/>
     <use xlink:href="#DejaVuSans-7c" transform="translate(400.439453 0)"/>
     <use xlink:href="#DejaVuSans-4a" transform="translate(434.130859 0)"/>
     <use xlink:href="#DejaVuSans-3d" transform="translate(463.623047 0)"/>
     <use xlink:href="#DejaVuSans-30" transform="translate(547.412109 0)"/>
    </g>
   </g>
   <g id="text_18">
    <g id="patch_13">
     <path d="M 242.98256 295.211043 
L 288.811076 295.211043 
Q 289.936076 295.211043 289.936076 294.086043 
L 289.936076 286.586043 
Q 289.936076 285.461043 288.811076 285.461043 
L 242.98256 285.461043 
Q 241.85756 285.461043 241.85756 286.586043 
L 241.85756 294.086043 
Q 241.85756 295.211043 242.98256 295.211043 
z
" style="fill: #ffffff; opacity: 0.75"/>
    </g>
    <!-- 1s2p|1P|J=1 -->
    <g transform="translate(242.98256 292.317683) scale(0.075 -0.075)">
     <use xlink:href="#DejaVuSans-31"/>
     <use xlink:href="#DejaVuSans-73" transform="translate(63.623047 0)"/>
     <use xlink:href="#DejaVuSans-32" transform="translate(115.722656 0)"/>
     <use xlink:href="#DejaVuSans-70" transform="translate(179.345703 0)"/>
     <use xlink:href="#DejaVuSans-7c" transform="translate(242.822266 0)"/>
     <use xlink:href="#DejaVuSans-31" transform="translate(276.513672 0)"/>
     <use xlink:href="#DejaVuSans-50" transform="translate(340.136719 0)"/>
     <use xlink:href="#DejaVuSans-7c" transform="translate(400.439453 0)"/>
     <use xlink:href="#DejaVuSans-4a" transform="translate(434.130859 0)"/>
     <use xlink:href="#DejaVuSans-3d" transform="translate(463.623047 0)"/>
     <use xlink:href="#DejaVuSans-31" transform="translate(547.412109 0)"/>
    </g>
   </g>
   <g id="text_19">
    <g id="patch_14">
     <path d="M 243.740178 167.477393 
L 288.953459 167.477393 
Q 290.078459 167.477393 290.078459 166.352393 
L 290.078459 158.852393 
Q 290.078459 157.727393 288.953459 157.727393 
L 243.740178 157.727393 
Q 242.615178 157.727393 242.615178 158.852393 
L 242.615178 166.352393 
Q 242.615178 167.477393 243.740178 167.477393 
z
" style="fill: #ffffff; opacity: 0.75"/>
    </g>
    <!-- 1s3s|3S|J=1 -->
    <g transform="translate(243.740178 164.584034) scale(0.075 -0.075)">
     <use xlink:href="#DejaVuSans-31"/>
     <use xlink:href="#DejaVuSans-73" transform="translate(63.623047 0)"/>
     <use xlink:href="#DejaVuSans-33" transform="translate(115.722656 0)"/>
     <use xlink:href="#DejaVuSans-73" transform="translate(179.345703 0)"/>
     <use xlink:href="#DejaVuSans-7c" transform="translate(231.445312 0)"/>
     <use xlink:href="#DejaVuSans-33" transform="translate(265.136719 0)"/>
     <use xlink:href="#DejaVuSans-53" transform="translate(328.759766 0)"/>
     <use xlink:href="#DejaVuSans-7c" transform="translate(392.236328 0)"/>
     <use xlink:href="#DejaVuSans-4a" transform="translate(425.927734 0)"/>
     <use xlink:href="#DejaVuSans-3d" transform="translate(455.419922 0)"/>
     <use xlink:href="#DejaVuSans-31" transform="translate(539.208984 0)"/>
    </g>
   </g>
   <g id="text_20">
    <g id="patch_15">
     <path d="M 116.876996 150.195279 
L 162.090277 150.195279 
Q 163.215277 150.195279 163.215277 149.070279 
L 163.215277 141.570279 
Q 163.215277 140.445279 162.090277 140.445279 
L 116.876996 140.445279 
Q 115.751996 140.445279 115.751996 141.570279 
L 115.751996 149.070279 
Q 115.751996 150.195279 116.876996 150.195279 
z
" style="fill: #ffffff; opacity: 0.75"/>
    </g>
    <!-- 1s3s|1S|J=0 -->
    <g transform="translate(116.876996 147.301919) scale(0.075 -0.075)">
     <use xlink:href="#DejaVuSans-31"/>
     <use xlink:href="#DejaVuSans-73" transform="translate(63.623047 0)"/>
     <use xlink:href="#DejaVuSans-33" transform="translate(115.722656 0)"/>
     <use xlink:href="#DejaVuSans-73" transform="translate(179.345703 0)"/>
     <use xlink:href="#DejaVuSans-7c" transform="translate(231.445312 0)"/>
     <use xlink:href="#DejaVuSans-31" transform="translate(265.136719 0)"/>
     <use xlink:href="#DejaVuSans-53" transform="translate(328.759766 0)"/>
     <use xlink:href="#DejaVuSans-7c" transform="translate(392.236328 0)"/>
     <use xlink:href="#DejaVuSans-4a" transform="translate(425.927734 0)"/>
     <use xlink:href="#DejaVuSans-3d" transform="translate(455.419922 0)"/>
     <use xlink:href="#DejaVuSans-30" transform="translate(539.208984 0)"/>
    </g>
   </g>
   <g id="text_21">
    <g id="patch_16">
     <path d="M 370.520742 147.85412 
L 416.349258 147.85412 
Q 417.474258 147.85412 417.474258 146.72912 
L 417.474258 139.22912 
Q 417.474258 138.10412 416.349258 138.10412 
L 370.520742 138.10412 
Q 369.395742 138.10412 369.395742 139.22912 
L 369.395742 146.72912 
Q 369.395742 147.85412 370.520742 147.85412 
z
" style="fill: #ffffff; opacity: 0.75"/>
    </g>
    <!-- 1s3p|3P|J=2 -->
    <g transform="translate(370.520742 144.960761) scale(0.075 -0.075)">
     <use xlink:href="#DejaVuSans-31"/>
     <use xlink:href="#DejaVuSans-73" transform="translate(63.623047 0)"/>
     <use xlink:href="#DejaVuSans-33" transform="translate(115.722656 0)"/>
     <use xlink:href="#DejaVuSans-70" transform="translate(179.345703 0)"/>
     <use xlink:href="#DejaVuSans-7c" transform="translate(242.822266 0)"/>
     <use xlink:href="#DejaVuSans-33" transform="translate(276.513672 0)"/>
     <use xlink:href="#DejaVuSans-50" transform="translate(340.136719 0)"/>
     <use xlink:href="#DejaVuSans-7c" transform="translate(400.439453 0)"/>
     <use xlink:href="#DejaVuSans-4a" transform="translate(434.130859 0)"/>
     <use xlink:href="#DejaVuSans-3d" transform="translate(463.623047 0)"/>
     <use xlink:href="#DejaVuSans-32" transform="translate(547.412109 0)"/>
    </g>
   </g>
   <g id="text_22">
    <g id="patch_17">
     <path d="M 243.70256 147.556989 
L 289.531076 147.556989 
Q 290.656076 147.556989 290.656076 146.431989 
L 290.656076 138.931989 
Q 290.656076 137.806989 289.531076 137.806989 
L 243.70256 137.806989 
Q 242.57756 137.806989 242.57756 138.931989 
L 242.57756 146.431989 
Q 242.57756 147.556989 243.70256 147.556989 
z
" style="fill: #ffffff; opacity: 0.75"/>
    </g>
    <!-- 1s3p|3P|J=1 -->
    <g transform="translate(243.70256 144.663629) scale(0.075 -0.075)">
     <use xlink:href="#DejaVuSans-31"/>
     <use xlink:href="#DejaVuSans-73" transform="translate(63.623047 0)"/>
     <use xlink:href="#DejaVuSans-33" transform="translate(115.722656 0)"/>
     <use xlink:href="#DejaVuSans-70" transform="translate(179.345703 0)"/>
     <use xlink:href="#DejaVuSans-7c" transform="translate(242.822266 0)"/>
     <use xlink:href="#DejaVuSans-33" transform="translate(276.513672 0)"/>
     <use xlink:href="#DejaVuSans-50" transform="translate(340.136719 0)"/>
     <use xlink:href="#DejaVuSans-7c" transform="translate(400.439453 0)"/>
     <use xlink:href="#DejaVuSans-4a" transform="translate(434.130859 0)"/>
     <use xlink:href="#DejaVuSans-3d" transform="translate(463.623047 0)"/>
     <use xlink:href="#DejaVuSans-31" transform="translate(547.412109 0)"/>
    </g>
   </g>
   <g id="text_23">
    <g id="patch_18">
     <path d="M 116.119379 137.051038 
L 161.947894 137.051038 
Q 163.072894 137.051038 163.072894 135.926038 
L 163.072894 128.426038 
Q 163.072894 127.301038 161.947894 127.301038 
L 116.119379 127.301038 
Q 114.994379 127.301038 114.994379 128.426038 
L 114.994379 135.926038 
Q 114.994379 137.051038 116.119379 137.051038 
z
" style="fill: #ffffff; opacity: 0.75"/>
    </g>
    <!-- 1s3p|3P|J=0 -->
    <g transform="translate(116.119379 134.157679) scale(0.075 -0.075)">
     <use xlink:href="#DejaVuSans-31"/>
     <use xlink:href="#DejaVuSans-73" transform="translate(63.623047 0)"/>
     <use xlink:href="#DejaVuSans-33" transform="translate(115.722656 0)"/>
     <use xlink:href="#DejaVuSans-70" transform="translate(179.345703 0)"/>
     <use xlink:href="#DejaVuSans-7c" transform="translate(242.822266 0)"/>
     <use xlink:href="#DejaVuSans-33" transform="translate(276.513672 0)"/>
     <use xlink:href="#DejaVuSans-50" transform="translate(340.136719 0)"/>
     <use xlink:href="#DejaVuSans-7c" transform="translate(400.439453 0)"/>
     <use xlink:href="#DejaVuSans-4a" transform="translate(434.130859 0)"/>
     <use xlink:href="#DejaVuSans-3d" transform="translate(463.623047 0)"/>
     <use xlink:href="#DejaVuSans-30" transform="translate(547.412109 0)"/>
    </g>
   </g>
   <g id="text_24">
    <g id="patch_19">
     <path d="M 496.622557 133.11857 
L 543.703807 133.11857 
Q 544.828807 133.11857 544.828807 131.99357 
L 544.828807 124.49357 
Q 544.828807 123.36857 543.703807 123.36857 
L 496.622557 123.36857 
Q 495.497557 123.36857 495.497557 124.49357 
L 495.497557 131.99357 
Q 495.497557 133.11857 496.622557 133.11857 
z
" style="fill: #ffffff; opacity: 0.75"/>
    </g>
    <!-- 1s3d|3D|J=3 -->
    <g transform="translate(496.622557 130.225211) scale(0.075 -0.075)">
     <defs>
      <path id="DejaVuSans-64" d="M 2906 2969 
L 2906 4863 
L 3481 4863 
L 3481 0 
L 2906 0 
L 2906 525 
Q 2725 213 2448 61 
Q 2172 -91 1784 -91 
Q 1150 -91 751 415 
Q 353 922 353 1747 
Q 353 2572 751 3078 
Q 1150 3584 1784 3584 
Q 2172 3584 2448 3432 
Q 2725 3281 2906 2969 
z
M 947 1747 
Q 947 1113 1208 752 
Q 1469 391 1925 391 
Q 2381 391 2643 752 
Q 2906 1113 2906 1747 
Q 2906 2381 2643 2742 
Q 2381 3103 1925 3103 
Q 1469 3103 1208 2742 
Q 947 2381 947 1747 
z
" transform="scale(0.015625)"/>
      <path id="DejaVuSans-44" d="M 1259 4147 
L 1259 519 
L 2022 519 
Q 2988 519 3436 956 
Q 3884 1394 3884 2338 
Q 3884 3275 3436 3711 
Q 2988 4147 2022 4147 
L 1259 4147 
z
M 628 4666 
L 1925 4666 
Q 3281 4666 3915 4102 
Q 4550 3538 4550 2338 
Q 4550 1131 3912 565 
Q 3275 0 1925 0 
L 628 0 
L 628 4666 
z
" transform="scale(0.015625)"/>
     </defs>
     <use xlink:href="#DejaVuSans-31"/>
     <use xlink:href="#DejaVuSans-73" transform="translate(63.623047 0)"/>
     <use xlink:href="#DejaVuSans-33" transform="translate(115.722656 0)"/>
     <use xlink:href="#DejaVuSans-64" transform="translate(179.345703 0)"/>
     <use xlink:href="#DejaVuSans-7c" transform="translate(242.822266 0)"/>
     <use xlink:href="#DejaVuSans-33" transform="translate(276.513672 0)"/>
     <use xlink:href="#DejaVuSans-44" transform="translate(340.136719 0)"/>
     <use xlink:href="#DejaVuSans-7c" transform="translate(417.138672 0)"/>
     <use xlink:href="#DejaVuSans-4a" transform="translate(450.830078 0)"/>
     <use xlink:href="#DejaVuSans-3d" transform="translate(480.322266 0)"/>
     <use xlink:href="#DejaVuSans-33" transform="translate(564.111328 0)"/>
    </g>
   </g>
   <g id="text_25">
    <g id="patch_20">
     <path d="M 375.564375 138.608544 
L 422.645625 138.608544 
Q 423.770625 138.608544 423.770625 137.483544 
L 423.770625 129.983544 
Q 423.770625 128.858544 422.645625 128.858544 
L 375.564375 128.858544 
Q 374.439375 128.858544 374.439375 129.983544 
L 374.439375 137.483544 
Q 374.439375 138.608544 375.564375 138.608544 
z
" style="fill: #ffffff; opacity: 0.75"/>
    </g>
    <!-- 1s3d|3D|J=2 -->
    <g transform="translate(375.564375 135.715185) scale(0.075 -0.075)">
     <use xlink:href="#DejaVuSans-31"/>
     <use xlink:href="#DejaVuSans-73" transform="translate(63.623047 0)"/>
     <use xlink:href="#DejaVuSans-33" transform="translate(115.722656 0)"/>
     <use xlink:href="#DejaVuSans-64" transform="translate(179.345703 0)"/>
     <use xlink:href="#DejaVuSans-7c" transform="translate(242.822266 0)"/>
     <use xlink:href="#DejaVuSans-33" transform="translate(276.513672 0)"/>
     <use xlink:href="#DejaVuSans-44" transform="translate(340.136719 0)"/>
     <use xlink:href="#DejaVuSans-7c" transform="translate(417.138672 0)"/>
     <use xlink:href="#DejaVuSans-4a" transform="translate(450.830078 0)"/>
     <use xlink:href="#DejaVuSans-3d" transform="translate(480.322266 0)"/>
     <use xlink:href="#DejaVuSans-32" transform="translate(564.111328 0)"/>
    </g>
   </g>
   <g id="text_26">
    <g id="patch_21">
     <path d="M 248.116193 138.493889 
L 295.197443 138.493889 
Q 296.322443 138.493889 296.322443 137.368889 
L 296.322443 129.868889 
Q 296.322443 128.743889 295.197443 128.743889 
L 248.116193 128.743889 
Q 246.991193 128.743889 246.991193 129.868889 
L 246.991193 137.368889 
Q 246.991193 138.493889 248.116193 138.493889 
z
" style="fill: #ffffff; opacity: 0.75"/>
    </g>
    <!-- 1s3d|3D|J=1 -->
    <g transform="translate(248.116193 135.600529) scale(0.075 -0.075)">
     <use xlink:href="#DejaVuSans-31"/>
     <use xlink:href="#DejaVuSans-73" transform="translate(63.623047 0)"/>
     <use xlink:href="#DejaVuSans-33" transform="translate(115.722656 0)"/>
     <use xlink:href="#DejaVuSans-64" transform="translate(179.345703 0)"/>
     <use xlink:href="#DejaVuSans-7c" transform="translate(242.822266 0)"/>
     <use xlink:href="#DejaVuSans-33" transform="translate(276.513672 0)"/>
     <use xlink:href="#DejaVuSans-44" transform="translate(340.136719 0)"/>
     <use xlink:href="#DejaVuSans-7c" transform="translate(417.138672 0)"/>
     <use xlink:href="#DejaVuSans-4a" transform="translate(450.830078 0)"/>
     <use xlink:href="#DejaVuSans-3d" transform="translate(480.322266 0)"/>
     <use xlink:href="#DejaVuSans-31" transform="translate(564.111328 0)"/>
    </g>
   </g>
   <g id="text_27">
    <g id="patch_22">
     <path d="M 362.604375 128.492661 
L 409.685625 128.492661 
Q 410.810625 128.492661 410.810625 127.367661 
L 410.810625 119.867661 
Q 410.810625 118.742661 409.685625 118.742661 
L 362.604375 118.742661 
Q 361.479375 118.742661 361.479375 119.867661 
L 361.479375 127.367661 
Q 361.479375 128.492661 362.604375 128.492661 
z
" style="fill: #ffffff; opacity: 0.75"/>
    </g>
    <!-- 1s3d|1D|J=2 -->
    <g transform="translate(362.604375 125.599302) scale(0.075 -0.075)">
     <use xlink:href="#DejaVuSans-31"/>
     <use xlink:href="#DejaVuSans-73" transform="translate(63.623047 0)"/>
     <use xlink:href="#DejaVuSans-33" transform="translate(115.722656 0)"/>
     <use xlink:href="#DejaVuSans-64" transform="translate(179.345703 0)"/>
     <use xlink:href="#DejaVuSans-7c" transform="translate(242.822266 0)"/>
     <use xlink:href="#DejaVuSans-31" transform="translate(276.513672 0)"/>
     <use xlink:href="#DejaVuSans-44" transform="translate(340.136719 0)"/>
     <use xlink:href="#DejaVuSans-7c" transform="translate(417.138672 0)"/>
     <use xlink:href="#DejaVuSans-4a" transform="translate(450.830078 0)"/>
     <use xlink:href="#DejaVuSans-3d" transform="translate(480.322266 0)"/>
     <use xlink:href="#DejaVuSans-32" transform="translate(564.111328 0)"/>
    </g>
   </g>
   <g id="text_28">
    <g id="patch_23">
     <path d="M 236.41256 127.344997 
L 282.241076 127.344997 
Q 283.366076 127.344997 283.366076 126.219997 
L 283.366076 118.719997 
Q 283.366076 117.594997 282.241076 117.594997 
L 236.41256 117.594997 
Q 235.28756 117.594997 235.28756 118.719997 
L 235.28756 126.219997 
Q 235.28756 127.344997 236.41256 127.344997 
z
" style="fill: #ffffff; opacity: 0.75"/>
    </g>
    <!-- 1s3p|1P|J=1 -->
    <g transform="translate(236.41256 124.451638) scale(0.075 -0.075)">
     <use xlink:href="#DejaVuSans-31"/>
     <use xlink:href="#DejaVuSans-73" transform="translate(63.623047 0)"/>
     <use xlink:href="#DejaVuSans-33" transform="translate(115.722656 0)"/>
     <use xlink:href="#DejaVuSans-70" transform="translate(179.345703 0)"/>
     <use xlink:href="#DejaVuSans-7c" transform="translate(242.822266 0)"/>
     <use xlink:href="#DejaVuSans-31" transform="translate(276.513672 0)"/>
     <use xlink:href="#DejaVuSans-50" transform="translate(340.136719 0)"/>
     <use xlink:href="#DejaVuSans-7c" transform="translate(400.439453 0)"/>
     <use xlink:href="#DejaVuSans-4a" transform="translate(434.130859 0)"/>
     <use xlink:href="#DejaVuSans-3d" transform="translate(463.623047 0)"/>
     <use xlink:href="#DejaVuSans-31" transform="translate(547.412109 0)"/>
    </g>
   </g>
   <g id="text_29">
    <g id="patch_24">
     <path d="M 243.740178 97.921307 
L 288.953459 97.921307 
Q 290.078459 97.921307 290.078459 96.796307 
L 290.078459 89.296307 
Q 290.078459 88.171307 288.953459 88.171307 
L 243.740178 88.171307 
Q 242.615178 88.171307 242.615178 89.296307 
L 242.615178 96.796307 
Q 242.615178 97.921307 243.740178 97.921307 
z
" style="fill: #ffffff; opacity: 0.75"/>
    </g>
    <!-- 1s4s|3S|J=1 -->
    <g transform="translate(243.740178 95.027947) scale(0.075 -0.075)">
     <use xlink:href="#DejaVuSans-31"/>
     <use xlink:href="#DejaVuSans-73" transform="translate(63.623047 0)"/>
     <use xlink:href="#DejaVuSans-34" transform="translate(115.722656 0)"/>
     <use xlink:href="#DejaVuSans-73" transform="translate(179.345703 0)"/>
     <use xlink:href="#DejaVuSans-7c" transform="translate(231.445312 0)"/>
     <use xlink:href="#DejaVuSans-33" transform="translate(265.136719 0)"/>
     <use xlink:href="#DejaVuSans-53" transform="translate(328.759766 0)"/>
     <use xlink:href="#DejaVuSans-7c" transform="translate(392.236328 0)"/>
     <use xlink:href="#DejaVuSans-4a" transform="translate(425.927734 0)"/>
     <use xlink:href="#DejaVuSans-3d" transform="translate(455.419922 0)"/>
     <use xlink:href="#DejaVuSans-31" transform="translate(539.208984 0)"/>
    </g>
   </g>
   <g id="text_30">
    <g id="patch_25">
     <path d="M 117.596996 86.791588 
L 162.810277 86.791588 
Q 163.935277 86.791588 163.935277 85.666588 
L 163.935277 78.166588 
Q 163.935277 77.041588 162.810277 77.041588 
L 117.596996 77.041588 
Q 116.471996 77.041588 116.471996 78.166588 
L 116.471996 85.666588 
Q 116.471996 86.791588 117.596996 86.791588 
z
" style="fill: #ffffff; opacity: 0.75"/>
    </g>
    <!-- 1s4s|1S|J=0 -->
    <g transform="translate(117.596996 83.898228) scale(0.075 -0.075)">
     <use xlink:href="#DejaVuSans-31"/>
     <use xlink:href="#DejaVuSans-73" transform="translate(63.623047 0)"/>
     <use xlink:href="#DejaVuSans-34" transform="translate(115.722656 0)"/>
     <use xlink:href="#DejaVuSans-73" transform="translate(179.345703 0)"/>
     <use xlink:href="#DejaVuSans-7c" transform="translate(231.445312 0)"/>
     <use xlink:href="#DejaVuSans-31" transform="translate(265.136719 0)"/>
     <use xlink:href="#DejaVuSans-53" transform="translate(328.759766 0)"/>
     <use xlink:href="#DejaVuSans-7c" transform="translate(392.236328 0)"/>
     <use xlink:href="#DejaVuSans-4a" transform="translate(425.927734 0)"/>
     <use xlink:href="#DejaVuSans-3d" transform="translate(455.419922 0)"/>
     <use xlink:href="#DejaVuSans-30" transform="translate(539.208984 0)"/>
    </g>
   </g>
   <g id="text_31">
    <g id="patch_26">
     <path d="M 375.560742 95.212785 
L 421.389258 95.212785 
Q 422.514258 95.212785 422.514258 94.087785 
L 422.514258 86.587785 
Q 422.514258 85.462785 421.389258 85.462785 
L 375.560742 85.462785 
Q 374.435742 85.462785 374.435742 86.587785 
L 374.435742 94.087785 
Q 374.435742 95.212785 375.560742 95.212785 
z
" style="fill: #ffffff; opacity: 0.75"/>
    </g>
    <!-- 1s4p|3P|J=2 -->
    <g transform="translate(375.560742 92.319426) scale(0.075 -0.075)">
     <use xlink:href="#DejaVuSans-31"/>
     <use xlink:href="#DejaVuSans-73" transform="translate(63.623047 0)"/>
     <use xlink:href="#DejaVuSans-34" transform="translate(115.722656 0)"/>
     <use xlink:href="#DejaVuSans-70" transform="translate(179.345703 0)"/>
     <use xlink:href="#DejaVuSans-7c" transform="translate(242.822266 0)"/>
     <use xlink:href="#DejaVuSans-33" transform="translate(276.513672 0)"/>
     <use xlink:href="#DejaVuSans-50" transform="translate(340.136719 0)"/>
     <use xlink:href="#DejaVuSans-7c" transform="translate(400.439453 0)"/>
     <use xlink:href="#DejaVuSans-4a" transform="translate(434.130859 0)"/>
     <use xlink:href="#DejaVuSans-3d" transform="translate(463.623047 0)"/>
     <use xlink:href="#DejaVuSans-32" transform="translate(547.412109 0)"/>
    </g>
   </g>
   <g id="text_32">
    <g id="patch_27">
     <path d="M 253.78256 88.509522 
L 299.611076 88.509522 
Q 300.736076 88.509522 300.736076 87.384522 
L 300.736076 79.884522 
Q 300.736076 78.759522 299.611076 78.759522 
L 253.78256 78.759522 
Q 252.65756 78.759522 252.65756 79.884522 
L 252.65756 87.384522 
Q 252.65756 88.509522 253.78256 88.509522 
z
" style="fill: #ffffff; opacity: 0.75"/>
    </g>
    <!-- 1s4p|3P|J=1 -->
    <g transform="translate(253.78256 85.616163) scale(0.075 -0.075)">
     <use xlink:href="#DejaVuSans-31"/>
     <use xlink:href="#DejaVuSans-73" transform="translate(63.623047 0)"/>
     <use xlink:href="#DejaVuSans-34" transform="translate(115.722656 0)"/>
     <use xlink:href="#DejaVuSans-70" transform="translate(179.345703 0)"/>
     <use xlink:href="#DejaVuSans-7c" transform="translate(242.822266 0)"/>
     <use xlink:href="#DejaVuSans-33" transform="translate(276.513672 0)"/>
     <use xlink:href="#DejaVuSans-50" transform="translate(340.136719 0)"/>
     <use xlink:href="#DejaVuSans-7c" transform="translate(400.439453 0)"/>
     <use xlink:href="#DejaVuSans-4a" transform="translate(434.130859 0)"/>
     <use xlink:href="#DejaVuSans-3d" transform="translate(463.623047 0)"/>
     <use xlink:href="#DejaVuSans-31" transform="translate(547.412109 0)"/>
    </g>
   </g>
   <g id="text_33">
    <g id="patch_28">
     <path d="M 114.679379 75.548395 
L 160.507894 75.548395 
Q 161.632894 75.548395 161.632894 74.423395 
L 161.632894 66.923395 
Q 161.632894 65.798395 160.507894 65.798395 
L 114.679379 65.798395 
Q 113.554379 65.798395 113.554379 66.923395 
L 113.554379 74.423395 
Q 113.554379 75.548395 114.679379 75.548395 
z
" style="fill: #ffffff; opacity: 0.75"/>
    </g>
    <!-- 1s4p|3P|J=0 -->
    <g transform="translate(114.679379 72.655036) scale(0.075 -0.075)">
     <use xlink:href="#DejaVuSans-31"/>
     <use xlink:href="#DejaVuSans-73" transform="translate(63.623047 0)"/>
     <use xlink:href="#DejaVuSans-34" transform="translate(115.722656 0)"/>
     <use xlink:href="#DejaVuSans-70" transform="translate(179.345703 0)"/>
     <use xlink:href="#DejaVuSans-7c" transform="translate(242.822266 0)"/>
     <use xlink:href="#DejaVuSans-33" transform="translate(276.513672 0)"/>
     <use xlink:href="#DejaVuSans-50" transform="translate(340.136719 0)"/>
     <use xlink:href="#DejaVuSans-7c" transform="translate(400.439453 0)"/>
     <use xlink:href="#DejaVuSans-4a" transform="translate(434.130859 0)"/>
     <use xlink:href="#DejaVuSans-3d" transform="translate(463.623047 0)"/>
     <use xlink:href="#DejaVuSans-30" transform="translate(547.412109 0)"/>
    </g>
   </g>
   <g id="text_34">
    <g id="patch_29">
     <path d="M 497.342557 87.627148 
L 544.423807 87.627148 
Q 545.548807 87.627148 545.548807 86.502148 
L 545.548807 79.002148 
Q 545.548807 77.877148 544.423807 77.877148 
L 497.342557 77.877148 
Q 496.217557 77.877148 496.217557 79.002148 
L 496.217557 86.502148 
Q 496.217557 87.627148 497.342557 87.627148 
z
" style="fill: #ffffff; opacity: 0.75"/>
    </g>
    <!-- 1s4d|3D|J=3 -->
    <g transform="translate(497.342557 84.733789) scale(0.075 -0.075)">
     <use xlink:href="#DejaVuSans-31"/>
     <use xlink:href="#DejaVuSans-73" transform="translate(63.623047 0)"/>
     <use xlink:href="#DejaVuSans-34" transform="translate(115.722656 0)"/>
     <use xlink:href="#DejaVuSans-64" transform="translate(179.345703 0)"/>
     <use xlink:href="#DejaVuSans-7c" transform="translate(242.822266 0)"/>
     <use xlink:href="#DejaVuSans-33" transform="translate(276.513672 0)"/>
     <use xlink:href="#DejaVuSans-44" transform="translate(340.136719 0)"/>
     <use xlink:href="#DejaVuSans-7c" transform="translate(417.138672 0)"/>
     <use xlink:href="#DejaVuSans-4a" transform="translate(450.830078 0)"/>
     <use xlink:href="#DejaVuSans-3d" transform="translate(480.322266 0)"/>
     <use xlink:href="#DejaVuSans-33" transform="translate(564.111328 0)"/>
    </g>
   </g>
   <g id="text_35">
    <g id="patch_30">
     <path d="M 368.724375 86.111541 
L 415.805625 86.111541 
Q 416.930625 86.111541 416.930625 84.986541 
L 416.930625 77.486541 
Q 416.930625 76.361541 415.805625 76.361541 
L 368.724375 76.361541 
Q 367.599375 76.361541 367.599375 77.486541 
L 367.599375 84.986541 
Q 367.599375 86.111541 368.724375 86.111541 
z
" style="fill: #ffffff; opacity: 0.75"/>
    </g>
    <!-- 1s4d|3D|J=2 -->
    <g transform="translate(368.724375 83.218182) scale(0.075 -0.075)">
     <use xlink:href="#DejaVuSans-31"/>
     <use xlink:href="#DejaVuSans-73" transform="translate(63.623047 0)"/>
     <use xlink:href="#DejaVuSans-34" transform="translate(115.722656 0)"/>
     <use xlink:href="#DejaVuSans-64" transform="translate(179.345703 0)"/>
     <use xlink:href="#DejaVuSans-7c" transform="translate(242.822266 0)"/>
     <use xlink:href="#DejaVuSans-33" transform="translate(276.513672 0)"/>
     <use xlink:href="#DejaVuSans-44" transform="translate(340.136719 0)"/>
     <use xlink:href="#DejaVuSans-7c" transform="translate(417.138672 0)"/>
     <use xlink:href="#DejaVuSans-4a" transform="translate(450.830078 0)"/>
     <use xlink:href="#DejaVuSans-3d" transform="translate(480.322266 0)"/>
     <use xlink:href="#DejaVuSans-32" transform="translate(564.111328 0)"/>
    </g>
   </g>
   <g id="text_36">
    <g id="patch_31">
     <path d="M 264.676193 72.735 
L 311.757443 72.735 
Q 312.882443 72.735 312.882443 71.61 
L 312.882443 64.11 
Q 312.882443 62.985 311.757443 62.985 
L 264.676193 62.985 
Q 263.551193 62.985 263.551193 64.11 
L 263.551193 71.61 
Q 263.551193 72.735 264.676193 72.735 
z
" style="fill: #ffffff; opacity: 0.75"/>
    </g>
    <!-- 1s4d|3D|J=1 -->
    <g transform="translate(264.676193 69.841641) scale(0.075 -0.075)">
     <use xlink:href="#DejaVuSans-31"/>
     <use xlink:href="#DejaVuSans-73" transform="translate(63.623047 0)"/>
     <use xlink:href="#DejaVuSans-34" transform="translate(115.722656 0)"/>
     <use xlink:href="#DejaVuSans-64" transform="translate(179.345703 0)"/>
     <use xlink:href="#DejaVuSans-7c" transform="translate(242.822266 0)"/>
     <use xlink:href="#DejaVuSans-33" transform="translate(276.513672 0)"/>
     <use xlink:href="#DejaVuSans-44" transform="translate(340.136719 0)"/>
     <use xlink:href="#DejaVuSans-7c" transform="translate(417.138672 0)"/>
     <use xlink:href="#DejaVuSans-4a" transform="translate(450.830078 0)"/>
     <use xlink:href="#DejaVuSans-3d" transform="translate(480.322266 0)"/>
     <use xlink:href="#DejaVuSans-31" transform="translate(564.111328 0)"/>
    </g>
   </g>
   <g id="text_37">
    <g id="patch_32">
     <path d="M 398.701935 72.735 
L 445.783185 72.735 
Q 446.908185 72.735 446.908185 71.61 
L 446.908185 64.11 
Q 446.908185 62.985 445.783185 62.985 
L 398.701935 62.985 
Q 397.576935 62.985 397.576935 64.11 
L 397.576935 71.61 
Q 397.576935 72.735 398.701935 72.735 
z
" style="fill: #ffffff; opacity: 0.75"/>
    </g>
    <!-- 1s4d|1D|J=2 -->
    <g transform="translate(398.701935 69.841641) scale(0.075 -0.075)">
     <use xlink:href="#DejaVuSans-31"/>
     <use xlink:href="#DejaVuSans-73" transform="translate(63.623047 0)"/>
     <use xlink:href="#DejaVuSans-34" transform="translate(115.722656 0)"/>
     <use xlink:href="#DejaVuSans-64" transform="translate(179.345703 0)"/>
     <use xlink:href="#DejaVuSans-7c" transform="translate(242.822266 0)"/>
     <use xlink:href="#DejaVuSans-31" transform="translate(276.513672 0)"/>
     <use xlink:href="#DejaVuSans-44" transform="translate(340.136719 0)"/>
     <use xlink:href="#DejaVuSans-7c" transform="translate(417.138672 0)"/>
     <use xlink:href="#DejaVuSans-4a" transform="translate(450.830078 0)"/>
     <use xlink:href="#DejaVuSans-3d" transform="translate(480.322266 0)"/>
     <use xlink:href="#DejaVuSans-32" transform="translate(564.111328 0)"/>
    </g>
   </g>
   <g id="text_38">
    <g id="patch_33">
     <path d="M 527.573768 76.031702 
L 571.072596 76.031702 
Q 572.197596 76.031702 572.197596 74.906702 
L 572.197596 67.406702 
Q 572.197596 66.281702 571.072596 66.281702 
L 527.573768 66.281702 
Q 526.448768 66.281702 526.448768 67.406702 
L 526.448768 74.906702 
Q 526.448768 76.031702 527.573768 76.031702 
z
" style="fill: #ffffff; opacity: 0.75"/>
    </g>
    <!-- 1s4f|3F|J=3 -->
    <g transform="translate(527.573768 73.138343) scale(0.075 -0.075)">
     <defs>
      <path id="DejaVuSans-66" d="M 2375 4863 
L 2375 4384 
L 1825 4384 
Q 1516 4384 1395 4259 
Q 1275 4134 1275 3809 
L 1275 3500 
L 2222 3500 
L 2222 3053 
L 1275 3053 
L 1275 0 
L 697 0 
L 697 3053 
L 147 3053 
L 147 3500 
L 697 3500 
L 697 3744 
Q 697 4328 969 4595 
Q 1241 4863 1831 4863 
L 2375 4863 
z
" transform="scale(0.015625)"/>
      <path id="DejaVuSans-46" d="M 628 4666 
L 3309 4666 
L 3309 4134 
L 1259 4134 
L 1259 2759 
L 3109 2759 
L 3109 2228 
L 1259 2228 
L 1259 0 
L 628 0 
L 628 4666 
z
" transform="scale(0.015625)"/>
     </defs>
     <use xlink:href="#DejaVuSans-31"/>
     <use xlink:href="#DejaVuSans-73" transform="translate(63.623047 0)"/>
     <use xlink:href="#DejaVuSans-34" transform="translate(115.722656 0)"/>
     <use xlink:href="#DejaVuSans-66" transform="translate(179.345703 0)"/>
     <use xlink:href="#DejaVuSans-7c" transform="translate(214.550781 0)"/>
     <use xlink:href="#DejaVuSans-33" transform="translate(248.242188 0)"/>
     <use xlink:href="#DejaVuSans-46" transform="translate(311.865234 0)"/>
     <use xlink:href="#DejaVuSans-7c" transform="translate(369.384766 0)"/>
     <use xlink:href="#DejaVuSans-4a" transform="translate(403.076172 0)"/>
     <use xlink:href="#DejaVuSans-3d" transform="translate(432.568359 0)"/>
     <use xlink:href="#DejaVuSans-33" transform="translate(516.357422 0)"/>
    </g>
   </g>
   <g id="text_39">
    <g id="patch_34">
     <path d="M 604.425586 77.741629 
L 647.924414 77.741629 
Q 649.049414 77.741629 649.049414 76.616629 
L 649.049414 69.116629 
Q 649.049414 67.991629 647.924414 67.991629 
L 604.425586 67.991629 
Q 603.300586 67.991629 603.300586 69.116629 
L 603.300586 76.616629 
Q 603.300586 77.741629 604.425586 77.741629 
z
" style="fill: #ffffff; opacity: 0.75"/>
    </g>
    <!-- 1s4f|3F|J=4 -->
    <g transform="translate(604.425586 74.84827) scale(0.075 -0.075)">
     <use xlink:href="#DejaVuSans-31"/>
     <use xlink:href="#DejaVuSans-73" transform="translate(63.623047 0)"/>
     <use xlink:href="#DejaVuSans-34" transform="translate(115.722656 0)"/>
     <use xlink:href="#DejaVuSans-66" transform="translate(179.345703 0)"/>
     <use xlink:href="#DejaVuSans-7c" transform="translate(214.550781 0)"/>
     <use xlink:href="#DejaVuSans-33" transform="translate(248.242188 0)"/>
     <use xlink:href="#DejaVuSans-46" transform="translate(311.865234 0)"/>
     <use xlink:href="#DejaVuSans-7c" transform="translate(369.384766 0)"/>
     <use xlink:href="#DejaVuSans-4a" transform="translate(403.076172 0)"/>
     <use xlink:href="#DejaVuSans-3d" transform="translate(432.568359 0)"/>
     <use xlink:href="#DejaVuSans-34" transform="translate(516.357422 0)"/>
    </g>
   </g>
   <g id="text_40">
    <g id="patch_35">
     <path d="M 345.002719 72.735 
L 388.501547 72.735 
Q 389.626547 72.735 389.626547 71.61 
L 389.626547 64.11 
Q 389.626547 62.985 388.501547 62.985 
L 345.002719 62.985 
Q 343.877719 62.985 343.877719 64.11 
L 343.877719 71.61 
Q 343.877719 72.735 345.002719 72.735 
z
" style="fill: #ffffff; opacity: 0.75"/>
    </g>
    <!-- 1s4f|3F|J=2 -->
    <g transform="translate(345.002719 69.841641) scale(0.075 -0.075)">
     <use xlink:href="#DejaVuSans-31"/>
     <use xlink:href="#DejaVuSans-73" transform="translate(63.623047 0)"/>
     <use xlink:href="#DejaVuSans-34" transform="translate(115.722656 0)"/>
     <use xlink:href="#DejaVuSans-66" transform="translate(179.345703 0)"/>
     <use xlink:href="#DejaVuSans-7c" transform="translate(214.550781 0)"/>
     <use xlink:href="#DejaVuSans-33" transform="translate(248.242188 0)"/>
     <use xlink:href="#DejaVuSans-46" transform="translate(311.865234 0)"/>
     <use xlink:href="#DejaVuSans-7c" transform="translate(369.384766 0)"/>
     <use xlink:href="#DejaVuSans-4a" transform="translate(403.076172 0)"/>
     <use xlink:href="#DejaVuSans-3d" transform="translate(432.568359 0)"/>
     <use xlink:href="#DejaVuSans-32" transform="translate(516.357422 0)"/>
    </g>
   </g>
   <g id="text_41">
    <g id="patch_36">
     <path d="M 480.053768 72.735 
L 523.552596 72.735 
Q 524.677596 72.735 524.677596 71.61 
L 524.677596 64.11 
Q 524.677596 62.985 523.552596 62.985 
L 480.053768 62.985 
Q 478.928768 62.985 478.928768 64.11 
L 478.928768 71.61 
Q 478.928768 72.735 480.053768 72.735 
z
" style="fill: #ffffff; opacity: 0.75"/>
    </g>
    <!-- 1s4f|1F|J=3 -->
    <g transform="translate(480.053768 69.841641) scale(0.075 -0.075)">
     <use xlink:href="#DejaVuSans-31"/>
     <use xlink:href="#DejaVuSans-73" transform="translate(63.623047 0)"/>
     <use xlink:href="#DejaVuSans-34" transform="translate(115.722656 0)"/>
     <use xlink:href="#DejaVuSans-66" transform="translate(179.345703 0)"/>
     <use xlink:href="#DejaVuSans-7c" transform="translate(214.550781 0)"/>
     <use xlink:href="#DejaVuSans-31" transform="translate(248.242188 0)"/>
     <use xlink:href="#DejaVuSans-46" transform="translate(311.865234 0)"/>
     <use xlink:href="#DejaVuSans-7c" transform="translate(369.384766 0)"/>
     <use xlink:href="#DejaVuSans-4a" transform="translate(403.076172 0)"/>
     <use xlink:href="#DejaVuSans-3d" transform="translate(432.568359 0)"/>
     <use xlink:href="#DejaVuSans-33" transform="translate(516.357422 0)"/>
    </g>
   </g>
   <g id="text_42">
    <g id="patch_37">
     <path d="M 213.37256 76.826947 
L 259.201076 76.826947 
Q 260.326076 76.826947 260.326076 75.701947 
L 260.326076 68.201947 
Q 260.326076 67.076947 259.201076 67.076947 
L 213.37256 67.076947 
Q 212.24756 67.076947 212.24756 68.201947 
L 212.24756 75.701947 
Q 212.24756 76.826947 213.37256 76.826947 
z
" style="fill: #ffffff; opacity: 0.75"/>
    </g>
    <!-- 1s4p|1P|J=1 -->
    <g transform="translate(213.37256 73.933587) scale(0.075 -0.075)">
     <use xlink:href="#DejaVuSans-31"/>
     <use xlink:href="#DejaVuSans-73" transform="translate(63.623047 0)"/>
     <use xlink:href="#DejaVuSans-34" transform="translate(115.722656 0)"/>
     <use xlink:href="#DejaVuSans-70" transform="translate(179.345703 0)"/>
     <use xlink:href="#DejaVuSans-7c" transform="translate(242.822266 0)"/>
     <use xlink:href="#DejaVuSans-31" transform="translate(276.513672 0)"/>
     <use xlink:href="#DejaVuSans-50" transform="translate(340.136719 0)"/>
     <use xlink:href="#DejaVuSans-7c" transform="translate(400.439453 0)"/>
     <use xlink:href="#DejaVuSans-4a" transform="translate(434.130859 0)"/>
     <use xlink:href="#DejaVuSans-3d" transform="translate(463.623047 0)"/>
     <use xlink:href="#DejaVuSans-31" transform="translate(547.412109 0)"/>
    </g>
   </g>
   <g id="patch_38">
    <path d="M 138.763602 446.77877 
Q 127.063636 680471.019273 115.363671 1360495.259776 
" style="fill: none; stroke: #808080; stroke-width: 0.5; stroke-linecap: round"/>
   </g>
   <g id="patch_39">
    <path d="M 137.12374 314.442526 
Q 127.198615 317.537052 117.273489 320.631578 
" style="fill: none; stroke: #808080; stroke-width: 0.5; stroke-linecap: round"/>
   </g>
   <g id="patch_40">
    <path d="M 263.989081 290.929722 
Q 254.039783 294.025898 244.090486 297.122074 
" style="fill: none; stroke: #808080; stroke-width: 0.5; stroke-linecap: round"/>
   </g>
   <g id="patch_41">
    <path d="M 137.12374 132.771519 
Q 127.198615 135.866045 117.273489 138.960571 
" style="fill: none; stroke: #808080; stroke-width: 0.5; stroke-linecap: round"/>
   </g>
   <g id="patch_42">
    <path d="M 397.102165 133.745519 
Q 384.051056 133.823553 370.999947 133.901586 
" style="fill: none; stroke: #808080; stroke-width: 0.5; stroke-linecap: round"/>
   </g>
   <g id="patch_43">
    <path d="M 269.659916 133.63882 
Q 256.922114 133.765956 244.184311 133.893093 
" style="fill: none; stroke: #808080; stroke-width: 0.5; stroke-linecap: round"/>
   </g>
   <g id="patch_44">
    <path d="M 384.42464 124.647168 
Q 377.569035 128.749735 370.71343 132.852301 
" style="fill: none; stroke: #808080; stroke-width: 0.5; stroke-linecap: round"/>
   </g>
   <g id="patch_45">
    <path d="M 257.61483 123.499686 
Q 250.755504 127.62528 243.896179 131.750873 
" style="fill: none; stroke: #808080; stroke-width: 0.5; stroke-linecap: round"/>
   </g>
   <g id="patch_46">
    <path d="M 396.571646 89.730574 
Q 383.739993 85.636995 370.90834 81.543417 
" style="fill: none; stroke: #808080; stroke-width: 0.5; stroke-linecap: round"/>
   </g>
   <g id="patch_47">
    <path d="M 274.703948 83.478626 
Q 259.441335 82.28468 244.178721 81.090734 
" style="fill: none; stroke: #808080; stroke-width: 0.5; stroke-linecap: round"/>
   </g>
   <g id="patch_48">
    <path d="M 135.778223 71.511278 
Q 126.479269 75.803103 117.180315 80.094928 
" style="fill: none; stroke: #808080; stroke-width: 0.5; stroke-linecap: round"/>
   </g>
   <g id="patch_49">
    <path d="M 286.269659 68.314779 
Q 265.198502 73.236164 244.127345 78.157549 
" style="fill: none; stroke: #808080; stroke-width: 0.5; stroke-linecap: round"/>
   </g>
   <g id="patch_50">
    <path d="M 420.28301 68.254982 
Q 395.622781 73.225695 370.962552 78.196407 
" style="fill: none; stroke: #808080; stroke-width: 0.5; stroke-linecap: round"/>
   </g>
   <g id="patch_51">
    <path d="M 547.34091 71.430119 
Q 522.571698 74.846562 497.802486 78.263005 
" style="fill: none; stroke: #808080; stroke-width: 0.5; stroke-linecap: round"/>
   </g>
   <g id="patch_52">
    <path d="M 625.115828 74.563753 
Q 624.405161 75.702463 623.694494 76.841173 
" style="fill: none; stroke: #808080; stroke-width: 0.5; stroke-linecap: round"/>
   </g>
   <g id="patch_53">
    <path d="M 367.164279 69.81754 
Q 367.876427 73.199984 368.588576 76.582429 
" style="fill: none; stroke: #808080; stroke-width: 0.5; stroke-linecap: round"/>
   </g>
   <g id="patch_54">
    <path d="M 500.825651 69.603787 
Q 498.810316 73.198884 496.794981 76.79398 
" style="fill: none; stroke: #808080; stroke-width: 0.5; stroke-linecap: round"/>
   </g>
   <g id="patch_55">
    <path d="M 237.671337 73.400596 
Q 239.236131 75.03787 240.800924 76.675143 
" style="fill: none; stroke: #808080; stroke-width: 0.5; stroke-linecap: round"/>
   </g>
   <g id="text_43">
    <!-- Niveles de energía del Helio hasta n=5 -->
    <g transform="translate(251.815313 54.48) scale(0.12 -0.12)">
     <defs>
      <path id="DejaVuSans-4e" d="M 628 4666 
L 1478 4666 
L 3547 763 
L 3547 4666 
L 4159 4666 
L 4159 0 
L 3309 0 
L 1241 3903 
L 1241 0 
L 628 0 
L 628 4666 
z
" transform="scale(0.015625)"/>
      <path id="DejaVuSans-69" d="M 603 3500 
L 1178 3500 
L 1178 0 
L 603 0 
L 603 3500 
z
M 603 4863 
L 1178 4863 
L 1178 4134 
L 603 4134 
L 603 4863 
z
" transform="scale(0.015625)"/>
      <path id="DejaVuSans-76" d="M 191 3500 
L 800 3500 
L 1894 563 
L 2988 3500 
L 3597 3500 
L 2284 0 
L 1503 0 
L 191 3500 
z
" transform="scale(0.015625)"/>
      <path id="DejaVuSans-48" d="M 628 4666 
L 1259 4666 
L 1259 2753 
L 3553 2753 
L 3553 4666 
L 4184 4666 
L 4184 0 
L 3553 0 
L 3553 2222 
L 1259 2222 
L 1259 0 
L 628 0 
L 628 4666 
z
" transform="scale(0.015625)"/>
      <path id="DejaVuSans-68" d="M 3513 2113 
L 3513 0 
L 2938 0 
L 2938 2094 
Q 2938 2591 2744 2837 
Q 2550 3084 2163 3084 
Q 1697 3084 1428 2787 
Q 1159 2491 1159 1978 
L 1159 0 
L 581 0 
L 581 4863 
L 1159 4863 
L 1159 2956 
Q 1366 3272 1645 3428 
Q 1925 3584 2291 3584 
Q 2894 3584 3203 3211 
Q 3513 2838 3513 2113 
z
" transform="scale(0.015625)"/>
     </defs>
     <use xlink:href="#DejaVuSans-4e"/>
     <use xlink:href="#DejaVuSans-69" transform="translate(74.804688 0)"/>
     <use xlink:href="#DejaVuSans-76" transform="translate(102.587891 0)"/>
     <use xlink:href="#DejaVuSans-65" transform="translate(161.767578 0)"/>
     <use xlink:href="#DejaVuSans-6c" transform="translate(223.291016 0)"/>
     <use xlink:href="#DejaVuSans-65" transform="translate(251.074219 0)"/>
     <use xlink:href="#DejaVuSans-73" transform="translate(312.597656 0)"/>
     <use xlink:href="#DejaVuSans-20" transform="translate(364.697266 0)"/>
     <use xlink:href="#DejaVuSans-64" transform="translate(396.484375 0)"/>
     <use xlink:href="#DejaVuSans-65" transform="translate(459.960938 0)"/>
     <use xlink:href="#DejaVuSans-20" transform="translate(521.484375 0)"/>
     <use xlink:href="#DejaVuSans-65" transform="translate(553.271484 0)"/>
     <use xlink:href="#DejaVuSans-6e" transform="translate(614.794922 0)"/>
     <use xlink:href="#DejaVuSans-65" transform="translate(678.173828 0)"/>
     <use xlink:href="#DejaVuSans-72" transform="translate(739.697266 0)"/>
     <use xlink:href="#DejaVuSans-67" transform="translate(779.060547 0)"/>
     <use xlink:href="#DejaVuSans-ed" transform="translate(842.537109 0)"/>
     <use xlink:href="#DejaVuSans-61" transform="translate(870.320312 0)"/>
     <use xlink:href="#DejaVuSans-20" transform="translate(931.599609 0)"/>
     <use xlink:href="#DejaVuSans-64" transform="translate(963.386719 0)"/>
     <use xlink:href="#DejaVuSans-65" transform="translate(1026.863281 0)"/>
     <use xlink:href="#DejaVuSans-6c" transform="translate(1088.386719 0)"/>
     <use xlink:href="#DejaVuSans-20" transform="translate(1116.169922 0)"/>
     <use xlink:href="#DejaVuSans-48" transform="translate(1147.957031 0)"/>
     <use xlink:href="#DejaVuSans-65" transform="translate(1223.152344 0)"/>
     <use xlink:href="#DejaVuSans-6c" transform="translate(1284.675781 0)"/>
     <use xlink:href="#DejaVuSans-69" transform="translate(1312.458984 0)"/>
     <use xlink:href="#DejaVuSans-6f" transform="translate(1340.242188 0)"/>
     <use xlink:href="#DejaVuSans-20" transform="translate(1401.423828 0)"/>
     <use xlink:href="#DejaVuSans-68" transform="translate(1433.210938 0)"/>
     <use xlink:href="#DejaVuSans-61" transform="translate(1496.589844 0)"/>
     <use xlink:href="#DejaVuSans-73" transform="translate(1557.869141 0)"/>
     <use xlink:href="#DejaVuSans-74" transform="translate(1609.96875 0)"/>
     <use xlink:href="#DejaVuSans-61" transform="translate(1649.177734 0)"/>
     <use xlink:href="#DejaVuSans-20" transform="translate(1710.457031 0)"/>
     <use xlink:href="#DejaVuSans-6e" transform="translate(1742.244141 0)"/>
     <use xlink:href="#DejaVuSans-3d" transform="translate(1805.623047 0)"/>
     <use xlink:href="#DejaVuSans-35" transform="translate(1889.412109 0)"/>
    </g>
   </g>
  </g>
 </g>
 <defs>
  <clipPath id="pb0c23e2184">
   <rect x="90" y="60.48" width="558" height="388.08"/>
  </clipPath>
 </defs>
</svg>
